<?xml version="1.0" encoding="utf-8"?>
<!-- Generator: Adobe Illustrator 19.1.1, SVG Export Plug-In . SVG Version: 6.00 Build 0)  -->
<svg version="1.1" xmlns="http://www.w3.org/2000/svg" xmlns:xlink="http://www.w3.org/1999/xlink" x="0px" y="0px"
	 viewBox="0 0 491 566.9" style="enable-background:new 0 0 491 566.9;" xml:space="preserve">
<style type="text/css">
	.st0{fill:#FEC40E;}
	.st1{fill:#E22735;}
	.st2{fill:#CDCCCC;}
	.st3{fill:#1D437D;}
</style>
<g id="Calque_6">
</g>
<g id="Background">
	<polygon class="st0" points="245.5,547.6 16.8,415.5 16.8,151.4 245.5,19.4 474.2,151.4 474.2,415.5 	"/>
</g>
<g id="Calque_5">
	<g>
		<g>
			<path class="st3" d="M389.2,281.2c-0.8-0.1-1.6,0.5-1.7,1.4c-0.1,0.9,0.5,1.6,1.4,1.7c0,0,0.1,0,0.2,0c0.8,0,1.5-0.6,1.5-1.4
				C390.7,282,390.1,281.3,389.2,281.2z"/>
			<path class="st3" d="M390.5,268.8c-0.9-0.1-1.6,0.5-1.7,1.4c-0.1,0.9,0.5,1.6,1.4,1.7c0.1,0,0.1,0,0.2,0c0.8,0,1.5-0.6,1.5-1.4
				C391.9,269.7,391.3,268.9,390.5,268.8z"/>
			<path class="st3" d="M389.8,275c-0.9-0.1-1.6,0.5-1.7,1.4c-0.1,0.8,0.5,1.6,1.4,1.7c0,0,0.1,0,0.1,0c0.8,0,1.5-0.6,1.5-1.4
				C391.3,275.9,390.7,275.1,389.8,275z"/>
			<path class="st3" d="M392.3,250.3c-0.9-0.1-1.6,0.5-1.7,1.4c-0.1,0.9,0.5,1.6,1.4,1.7c0.1,0,0.1,0,0.2,0c0.8,0,1.5-0.6,1.5-1.4
				C393.7,251.1,393.1,250.4,392.3,250.3z"/>
			<path class="st3" d="M391.1,262.7c-0.8-0.1-1.6,0.5-1.7,1.4c-0.1,0.9,0.5,1.6,1.4,1.7c0,0,0.1,0,0.1,0c0.8,0,1.5-0.6,1.6-1.4
				C392.5,263.5,391.9,262.7,391.1,262.7z"/>
			<path class="st3" d="M391.7,256.5c-0.9-0.1-1.6,0.5-1.7,1.4c-0.1,0.9,0.5,1.6,1.4,1.7c0,0,0.1,0,0.1,0c0.8,0,1.5-0.6,1.5-1.4
				C393.1,257.3,392.5,256.6,391.7,256.5z"/>
			<path class="st3" d="M384.7,318.2c-0.8-0.1-1.6,0.5-1.7,1.3c-0.1,0.9,0.5,1.6,1.3,1.7c0.1,0,0.1,0,0.2,0c0.8,0,1.4-0.6,1.5-1.4
				C386.2,319.1,385.6,318.3,384.7,318.2z"/>
			<path class="st3" d="M388.6,287.4c-0.8-0.1-1.6,0.5-1.7,1.4c-0.1,0.8,0.5,1.6,1.3,1.7c0.1,0,0.1,0,0.2,0c0.8,0,1.4-0.6,1.5-1.4
				C390.1,288.3,389.5,287.5,388.6,287.4z"/>
			<path class="st3" d="M385.5,312c-0.9-0.1-1.6,0.5-1.7,1.3c-0.1,0.9,0.5,1.6,1.3,1.7c0.1,0,0.1,0,0.2,0c0.8,0,1.4-0.6,1.5-1.4
				C387,312.9,386.4,312.1,385.5,312z"/>
			<path class="st3" d="M392.9,244.1c-0.9-0.1-1.6,0.5-1.7,1.4c-0.1,0.9,0.5,1.6,1.4,1.7c0,0,0.1,0,0.1,0c0.8,0,1.5-0.6,1.5-1.4
				C394.3,244.9,393.7,244.2,392.9,244.1z"/>
			<path class="st3" d="M386.3,305.9c-0.8-0.1-1.6,0.5-1.7,1.3c-0.1,0.9,0.5,1.6,1.3,1.7c0.1,0,0.1,0,0.2,0c0.8,0,1.4-0.6,1.5-1.4
				C387.8,306.8,387.2,306,386.3,305.9z"/>
			<path class="st3" d="M387.9,293.5c-0.9-0.1-1.6,0.5-1.7,1.3c-0.1,0.9,0.5,1.6,1.3,1.7c0.1,0,0.1,0,0.2,0c0.8,0,1.4-0.6,1.5-1.4
				C389.3,294.4,388.7,293.6,387.9,293.5z"/>
			<path class="st3" d="M387.1,299.7c-0.8-0.1-1.6,0.5-1.7,1.3c-0.1,0.9,0.5,1.6,1.3,1.7c0.1,0,0.1,0,0.2,0c0.8,0,1.4-0.6,1.5-1.4
				C388.5,300.6,387.9,299.8,387.1,299.7z"/>
			<path class="st3" d="M404.5,247.5c0.9-0.1,1.5-0.8,1.4-1.7c-0.1-0.8-0.8-1.5-1.7-1.4c-0.9,0.1-1.5,0.8-1.4,1.7
				c0.1,0.8,0.8,1.4,1.6,1.4C404.4,247.5,404.5,247.5,404.5,247.5z"/>
			<path class="st3" d="M384,324.4c-0.9-0.1-1.6,0.5-1.7,1.3c-0.1,0.9,0.5,1.6,1.4,1.7c0.1,0,0.1,0,0.2,0c0.8,0,1.4-0.6,1.5-1.4
				C385.4,325.2,384.8,324.5,384,324.4z"/>
			<path class="st3" d="M405.1,253.7c0.9-0.1,1.5-0.8,1.4-1.7c-0.1-0.9-0.8-1.5-1.7-1.4c-0.8,0.1-1.5,0.8-1.4,1.7
				c0.1,0.8,0.8,1.4,1.5,1.4C405,253.7,405.1,253.7,405.1,253.7z"/>
			<path class="st3" d="M403.3,235.2c0.8-0.3,1.3-1.1,1-2c-0.3-0.8-1.1-1.3-1.9-1c-0.8,0.3-1.3,1.1-1,2c0.2,0.7,0.8,1.1,1.5,1.1
				C403,235.2,403.2,235.2,403.3,235.2z"/>
			<path class="st3" d="M393.5,237.9c-0.9-0.1-1.6,0.5-1.7,1.4c-0.1,0.8,0.5,1.6,1.4,1.7c0,0,0.1,0,0.1,0c0.8,0,1.5-0.6,1.5-1.4
				C395,238.8,394.3,238,393.5,237.9z"/>
			<path class="st3" d="M406.9,272.3c0.8-0.1,1.5-0.8,1.4-1.7c-0.1-0.9-0.8-1.5-1.7-1.4c-0.8,0.1-1.5,0.8-1.4,1.7
				c0.1,0.8,0.8,1.4,1.5,1.4C406.8,272.3,406.9,272.3,406.9,272.3z"/>
			<path class="st3" d="M406.3,266.1c0.9-0.1,1.5-0.8,1.4-1.7c-0.1-0.9-0.8-1.5-1.7-1.4c-0.9,0.1-1.5,0.8-1.4,1.7
				c0.1,0.8,0.8,1.4,1.6,1.4C406.2,266.1,406.3,266.1,406.3,266.1z"/>
			<path class="st3" d="M405.7,259.9c0.9-0.1,1.5-0.8,1.4-1.7c-0.1-0.8-0.8-1.5-1.7-1.4c-0.9,0.1-1.5,0.8-1.4,1.7
				c0.1,0.8,0.8,1.4,1.5,1.4C405.6,259.9,405.7,259.9,405.7,259.9z"/>
			<path class="st3" d="M403.9,241.3c0.8-0.1,1.5-0.8,1.4-1.7c-0.1-0.9-0.8-1.5-1.7-1.4c-0.9,0.1-1.5,0.8-1.4,1.7
				c0.1,0.8,0.8,1.4,1.6,1.4C403.8,241.4,403.9,241.4,403.9,241.3z"/>
			<path class="st3" d="M394.7,225.6c-0.9-0.1-1.6,0.5-1.7,1.4c-0.1,0.8,0.5,1.6,1.4,1.7c0,0,0.1,0,0.1,0c0.8,0,1.5-0.6,1.5-1.4
				C396.2,226.4,395.5,225.6,394.7,225.6z"/>
			<path class="st3" d="M395.3,219.4c-0.9-0.1-1.6,0.5-1.7,1.4c-0.1,0.9,0.5,1.6,1.4,1.7c0,0,0.1,0,0.1,0c0.8,0,1.5-0.6,1.5-1.4
				C396.8,220.2,396.1,219.5,395.3,219.4z"/>
			<path class="st3" d="M402.4,227.3c-0.3-0.8-1.1-1.3-2-1c-0.8,0.3-1.3,1.1-1,1.9c0.2,0.7,0.8,1.1,1.5,1.1c0.2,0,0.3,0,0.5-0.1
				C402.2,229,402.7,228.1,402.4,227.3z"/>
			<path class="st3" d="M394.1,231.7c-0.8-0.1-1.6,0.5-1.7,1.4c-0.1,0.9,0.5,1.6,1.4,1.7c0,0,0.1,0,0.1,0c0.8,0,1.5-0.6,1.6-1.4
				C395.6,232.6,394.9,231.8,394.1,231.7z"/>
			<path class="st3" d="M398.6,215.5c-0.2-0.6-0.8-1-1.4-1.1c-0.1-0.6-0.7-1.1-1.4-1.2c-0.8-0.1-1.6,0.5-1.7,1.4
				c-0.1,0.9,0.5,1.6,1.4,1.7c0,0,0,0,0,0c0,0,0,0.1,0,0.1c0.2,0.7,0.8,1.1,1.5,1.1c0.2,0,0.3,0,0.5-0.1
				C398.4,217.2,398.9,216.3,398.6,215.5z"/>
			<path class="st3" d="M400.5,221.4c-0.3-0.8-1.1-1.3-2-1c-0.8,0.3-1.3,1.1-1,2c0.2,0.7,0.8,1.1,1.5,1.1c0.2,0,0.3,0,0.5-0.1
				C400.3,223.1,400.8,222.2,400.5,221.4z"/>
			<path class="st3" d="M363.7,372.1c-0.8-0.1-1.6,0.6-1.7,1.4c-0.1,0.9,0.6,1.6,1.4,1.7c0,0,0.1,0,0.1,0c0.8,0,1.5-0.6,1.5-1.4
				C365.3,372.9,364.6,372.1,363.7,372.1z"/>
			<path class="st3" d="M360.8,409.2c-0.9-0.1-1.6,0.6-1.7,1.4c-0.1,0.9,0.6,1.6,1.4,1.7c0,0,0.1,0,0.1,0c0.8,0,1.5-0.6,1.6-1.4
				C362.3,410,361.7,409.3,360.8,409.2z"/>
			<path class="st3" d="M359.9,421.6c-0.1,0-0.2,0-0.3,0c0-0.1,0-0.2,0-0.4c-0.2-0.8-1-1.4-1.8-1.2c-0.8,0.2-1.4,1-1.2,1.8
				c0.2,0.8,0.9,1.4,1.8,1.2c0,0.8,0.6,1.5,1.4,1.6c0,0,0.1,0,0.1,0c0.8,0,1.5-0.6,1.5-1.4C361.4,422.4,360.7,421.7,359.9,421.6z"/>
			<path class="st3" d="M361.3,403c-0.9-0.1-1.6,0.6-1.7,1.4c-0.1,0.8,0.6,1.6,1.4,1.7c0,0,0.1,0,0.1,0c0.8,0,1.5-0.6,1.6-1.4
				C362.8,403.8,362.2,403.1,361.3,403z"/>
			<path class="st3" d="M363.3,378.3c-0.8-0.1-1.6,0.6-1.7,1.4c-0.1,0.8,0.6,1.6,1.4,1.7c0,0,0.1,0,0.1,0c0.8,0,1.5-0.6,1.5-1.4
				C364.8,379.1,364.1,378.3,363.3,378.3z"/>
			<path class="st3" d="M362.8,384.5c-0.9-0.1-1.6,0.6-1.7,1.4c-0.1,0.9,0.6,1.6,1.4,1.7c0,0,0.1,0,0.1,0c0.8,0,1.5-0.6,1.6-1.4
				C364.3,385.3,363.6,384.5,362.8,384.5z"/>
			<path class="st3" d="M362.3,390.7c-0.9-0.1-1.6,0.6-1.7,1.4c-0.1,0.8,0.6,1.6,1.4,1.7c0,0,0.1,0,0.1,0c0.8,0,1.5-0.6,1.6-1.4
				C363.8,391.5,363.2,390.7,362.3,390.7z"/>
			<path class="st3" d="M361.8,396.8c-0.9-0.1-1.6,0.6-1.7,1.4c-0.1,0.9,0.6,1.6,1.4,1.7c0,0,0.1,0,0.1,0c0.8,0,1.5-0.6,1.6-1.4
				C363.3,397.7,362.7,396.9,361.8,396.8z"/>
			<path class="st3" d="M360.4,415.4c-0.9-0.1-1.6,0.6-1.7,1.4c-0.1,0.9,0.6,1.6,1.4,1.7c0,0,0.1,0,0.1,0c0.8,0,1.5-0.6,1.5-1.4
				C361.8,416.2,361.2,415.5,360.4,415.4z"/>
			<path class="st3" d="M353.5,398.7c0.8-0.2,1.4-1,1.2-1.8c-0.2-0.8-1-1.4-1.8-1.2c-0.8,0.2-1.4,1-1.2,1.8c0.1,0.7,0.8,1.3,1.5,1.3
				C353.3,398.7,353.4,398.7,353.5,398.7z"/>
			<path class="st3" d="M354.7,404.8c0.8-0.2,1.4-1,1.2-1.8c-0.2-0.8-1-1.4-1.8-1.2c-0.8,0.2-1.4,1-1.2,1.8c0.1,0.7,0.8,1.3,1.5,1.3
				C354.5,404.8,354.6,404.8,354.7,404.8z"/>
			<path class="st3" d="M366.4,338c0,0,0.1,0,0.1,0c0.8,0,1.5-0.6,1.6-1.4c0.1-0.9-0.6-1.6-1.4-1.7c-0.9-0.1-1.6,0.6-1.7,1.4
				C364.9,337.2,365.6,337.9,366.4,338z"/>
			<path class="st3" d="M357.1,417c0.8-0.2,1.4-1,1.2-1.8c-0.2-0.8-1-1.4-1.8-1.2c-0.8,0.2-1.4,1-1.2,1.8c0.1,0.7,0.8,1.3,1.5,1.3
				C356.9,417,357,417,357.1,417z"/>
			<path class="st3" d="M358.9,426.1c-0.8,0.2-1.4,1-1.2,1.8c0.1,0.7,0.8,1.3,1.5,1.3c0.1,0,0.2,0,0.3,0c0.8-0.2,1.4-1,1.2-1.8
				C360.5,426.5,359.7,426,358.9,426.1z"/>
			<path class="st3" d="M355.9,410.9c0.8-0.2,1.4-1,1.2-1.8c-0.2-0.8-1-1.4-1.8-1.2c-0.8,0.2-1.4,1-1.2,1.8c0.1,0.7,0.8,1.3,1.5,1.3
				C355.7,410.9,355.8,410.9,355.9,410.9z"/>
			<path class="st3" d="M381.6,342.8c-0.8-0.1-1.6,0.5-1.7,1.4c-0.1,0.8,0.5,1.6,1.4,1.7c0.1,0,0.1,0,0.2,0c0.8,0,1.4-0.6,1.5-1.4
				C383.1,343.7,382.5,342.9,381.6,342.8z"/>
			<path class="st3" d="M377,348.7c-0.5,0.7-0.3,1.7,0.4,2.2c0.3,0.2,0.6,0.3,0.9,0.3c0.5,0,1-0.2,1.3-0.6c0.5-0.7,0.3-1.7-0.4-2.2
				C378.5,347.9,377.5,348,377,348.7z"/>
			<path class="st3" d="M373.5,353.8c-0.5,0.7-0.3,1.7,0.4,2.2c0.3,0.2,0.6,0.3,0.9,0.3c0.5,0,1-0.2,1.3-0.7
				c0.5-0.7,0.3-1.7-0.4-2.2C374.9,352.9,373.9,353.1,373.5,353.8z"/>
			<path class="st3" d="M371.7,344.7c-0.3-0.8-1.2-1.2-2-1c-0.8,0.3-1.2,1.2-1,2c0.2,0.6,0.8,1,1.5,1c0.2,0,0.3,0,0.5-0.1
				C371.6,346.4,372,345.5,371.7,344.7z"/>
			<path class="st3" d="M407.5,278.4c0.9-0.1,1.5-0.8,1.4-1.7c-0.1-0.9-0.8-1.5-1.7-1.4s-1.5,0.8-1.4,1.7c0.1,0.8,0.7,1.4,1.5,1.4
				C407.4,278.5,407.5,278.4,407.5,278.4z"/>
			<path class="st3" d="M382.4,336.7c-0.9-0.1-1.6,0.5-1.7,1.3c-0.1,0.9,0.5,1.6,1.3,1.7c0.1,0,0.1,0,0.2,0c0.8,0,1.4-0.6,1.5-1.4
				C383.9,337.6,383.3,336.8,382.4,336.7z"/>
			<path class="st3" d="M383.2,330.5c-0.8-0.1-1.6,0.5-1.7,1.3c-0.1,0.9,0.5,1.6,1.3,1.7c0.1,0,0.1,0,0.2,0c0.8,0,1.4-0.6,1.5-1.4
				C384.6,331.4,384,330.6,383.2,330.5z"/>
			<path class="st3" d="M373.8,350.6c-0.3-0.8-1.2-1.2-2-0.9c-0.8,0.3-1.2,1.2-1,2c0.2,0.6,0.8,1,1.5,1c0.2,0,0.3,0,0.5-0.1
				C373.7,352.3,374.1,351.4,373.8,350.6z"/>
			<path class="st3" d="M365.2,353.5c-0.9-0.1-1.6,0.6-1.7,1.4c-0.1,0.9,0.6,1.6,1.4,1.7c0,0,0.1,0,0.1,0c0.8,0,1.5-0.6,1.6-1.4
				C366.7,354.3,366.1,353.6,365.2,353.5z"/>
			<path class="st3" d="M364.7,359.7c-0.9-0.1-1.6,0.6-1.7,1.4c-0.1,0.9,0.6,1.6,1.4,1.7c0,0,0.1,0,0.1,0c0.8,0,1.5-0.6,1.6-1.4
				C366.2,360.5,365.6,359.8,364.7,359.7z"/>
			<path class="st3" d="M364.2,365.9c-0.9-0.1-1.6,0.6-1.7,1.4c-0.1,0.9,0.6,1.6,1.4,1.7c0,0,0.1,0,0.1,0c0.8,0,1.5-0.6,1.5-1.4
				C365.7,366.7,365.1,365.9,364.2,365.9z"/>
			<path class="st3" d="M369.7,338.9c-0.3-0.8-1.2-1.2-2-0.9c-0.8,0.3-1.2,1.2-0.9,2c0.2,0.6,0.8,1,1.5,1c0.2,0,0.3,0,0.5-0.1
				C369.6,340.6,370,339.7,369.7,338.9z"/>
			<path class="st3" d="M365.7,347.3c-0.9-0.1-1.6,0.6-1.7,1.4c-0.1,0.9,0.6,1.6,1.4,1.7c0,0,0.1,0,0.1,0c0.8,0,1.5-0.6,1.5-1.4
				C367.2,348.1,366.6,347.4,365.7,347.3z"/>
			<path class="st3" d="M366.2,341.1c-0.9-0.1-1.6,0.6-1.7,1.4c-0.1,0.9,0.6,1.6,1.4,1.7c0,0,0.1,0,0.1,0c0.8,0,1.5-0.6,1.6-1.4
				C367.7,341.9,367,341.2,366.2,341.1z"/>
			<path class="st3" d="M426.9,397.8c-0.7-0.3-1.6,0-2,0.6c-0.2-0.1-0.5-0.1-0.7-0.1c-0.9,0.1-1.4,0.9-1.3,1.8
				c0.1,0.8,0.8,1.3,1.5,1.3c0.1,0,0.1,0,0.2,0c0.5-0.1,0.9-0.3,1.1-0.7c0.8,0.3,1.6-0.1,1.9-0.8
				C428.1,399.1,427.7,398.2,426.9,397.8z"/>
			<path class="st3" d="M452.7,335.5c-0.9-0.1-1.6,0.5-1.7,1.4c-0.1,0.9,0.5,1.6,1.4,1.7c0,0,0.1,0,0.2,0c0.8,0,1.5-0.6,1.5-1.4
				C454.2,336.4,453.6,335.6,452.7,335.5z"/>
			<path class="st3" d="M454.7,317c-0.9-0.1-1.6,0.5-1.7,1.4c-0.1,0.9,0.5,1.6,1.4,1.7c0,0,0.1,0,0.2,0c0.8,0,1.5-0.6,1.5-1.4
				C456.2,317.9,455.6,317.1,454.7,317z"/>
			<path class="st3" d="M453.4,329.3c-0.8-0.1-1.6,0.5-1.7,1.4c-0.1,0.9,0.5,1.6,1.4,1.7c0.1,0,0.1,0,0.2,0c0.8,0,1.5-0.6,1.5-1.4
				C454.9,330.2,454.2,329.4,453.4,329.3z"/>
			<path class="st3" d="M454.1,323.2c-0.8-0.1-1.6,0.5-1.7,1.4c-0.1,0.9,0.5,1.6,1.4,1.7c0,0,0.1,0,0.2,0c0.8,0,1.5-0.6,1.5-1.4
				C455.5,324,454.9,323.3,454.1,323.2z"/>
			<path class="st3" d="M469.7,315.4c-0.9-0.1-1.6,0.5-1.7,1.4c0,0,0,0,0,0c-0.1,0.8,0.5,1.6,1.4,1.7c0,0,0.1,0,0.1,0
				c0.8,0,1.5-0.6,1.5-1.4h0C471.2,316.2,470.6,315.5,469.7,315.4z"/>
			<circle class="st3" cx="460.6" cy="318.3" r="1.6"/>
			<path class="st3" d="M467.1,318.2c-0.8-0.2-1.7,0.2-1.9,1.1c-0.2,0.8,0.2,1.7,1.1,1.9c0.1,0,0.3,0.1,0.4,0.1
				c0.7,0,1.3-0.4,1.5-1.1C468.4,319.3,467.9,318.4,467.1,318.2z"/>
			<path class="st3" d="M470.3,309.2c-0.9-0.1-1.6,0.5-1.7,1.4c-0.1,0.9,0.5,1.6,1.4,1.7c0,0,0.1,0,0.1,0c0.8,0,1.5-0.6,1.5-1.4
				C471.8,310,471.2,309.3,470.3,309.2z"/>
			<path class="st3" d="M449.3,366.4c-0.9-0.1-1.6,0.5-1.7,1.4c-0.1,0.9,0.5,1.6,1.4,1.7c0.1,0,0.1,0,0.2,0c0.8,0,1.5-0.6,1.5-1.4
				C450.8,367.2,450.2,366.5,449.3,366.4z"/>
			<path class="st3" d="M450,360.2c-0.8-0.1-1.6,0.5-1.7,1.4c-0.1,0.9,0.5,1.6,1.4,1.7c0.1,0,0.1,0,0.2,0c0.8,0,1.5-0.6,1.5-1.4
				C451.5,361.1,450.8,360.3,450,360.2z"/>
			<path class="st3" d="M448.6,372.6c-0.9-0.1-1.6,0.5-1.7,1.4c-0.1,0.9,0.5,1.6,1.4,1.7c0,0,0.1,0,0.2,0c0.8,0,1.5-0.6,1.6-1.4
				C450.1,373.4,449.5,372.7,448.6,372.6z"/>
			<path class="st3" d="M452,341.7c-0.9-0.1-1.6,0.5-1.7,1.4c-0.1,0.9,0.5,1.6,1.4,1.7c0,0,0.1,0,0.2,0c0.8,0,1.5-0.6,1.5-1.4
				C453.5,342.6,452.9,341.8,452,341.7z"/>
			<path class="st3" d="M451.4,347.9c-0.9-0.1-1.6,0.5-1.7,1.4c-0.1,0.9,0.5,1.6,1.4,1.7c0.1,0,0.1,0,0.2,0c0.8,0,1.5-0.6,1.5-1.4
				C452.8,348.7,452.2,348,451.4,347.9z"/>
			<path class="st3" d="M450.7,354c-0.9-0.1-1.6,0.5-1.7,1.4c-0.1,0.9,0.5,1.6,1.4,1.7c0,0,0.1,0,0.2,0c0.8,0,1.5-0.6,1.5-1.4
				C452.1,354.9,451.5,354.1,450.7,354z"/>
			<path class="st3" d="M471.5,296.8c-0.9-0.1-1.6,0.5-1.7,1.4c-0.1,0.9,0.5,1.6,1.4,1.7c0,0,0.1,0,0.1,0c0.8,0,1.5-0.6,1.6-1.4
				C473,297.7,472.3,296.9,471.5,296.8z"/>
			<path class="st3" d="M475,259.7c-0.9-0.1-1.6,0.5-1.7,1.4c-0.1,0.9,0.5,1.6,1.4,1.7c0,0,0.1,0,0.1,0c0.8,0,1.5-0.6,1.6-1.4
				C476.5,260.6,475.8,259.8,475,259.7z"/>
			<path class="st3" d="M476.1,247.4c-0.9-0.1-1.6,0.5-1.7,1.4c-0.1,0.9,0.5,1.6,1.4,1.7c0,0,0.1,0,0.1,0c0.8,0,1.5-0.6,1.5-1.4
				C477.6,248.2,477,247.4,476.1,247.4z"/>
			<path class="st3" d="M475.6,253.5c-0.9-0.1-1.6,0.5-1.7,1.4c-0.1,0.9,0.5,1.6,1.4,1.7c0,0,0.1,0,0.1,0c0.8,0,1.5-0.6,1.6-1.4
				C477,254.4,476.4,253.6,475.6,253.5z"/>
			<path class="st3" d="M475,242.6C475,242.6,475,242.6,475,242.6C475,242.6,475,242.6,475,242.6C475,242.6,475,242.6,475,242.6z"/>
			<path class="st3" d="M477.3,235c-0.9-0.1-1.6,0.5-1.7,1.4c-0.1,0.8,0.5,1.6,1.4,1.7c0,0,0.1,0,0.1,0c0.8,0,1.5-0.6,1.5-1.4
				C478.8,235.8,478.2,235.1,477.3,235z"/>
			<path class="st3" d="M470.9,303c-0.9-0.1-1.6,0.5-1.7,1.4c0,0,0,0,0,0c-0.1,0.9,0.5,1.6,1.4,1.7c0,0,0.1,0,0.1,0
				c0.8,0,1.5-0.6,1.5-1.4C472.4,303.9,471.7,303.1,470.9,303z"/>
			<path class="st3" d="M476.7,241.2c-0.9-0.1-1.6,0.5-1.7,1.4c-0.1,0.9,0.5,1.6,1.4,1.7c0,0,0.1,0,0.1,0c0.8,0,1.5-0.6,1.5-1.4
				C478.2,242,477.6,241.3,476.7,241.2z"/>
			<path class="st3" d="M472.6,284.5c-0.9-0.1-1.6,0.5-1.7,1.4c-0.1,0.8,0.5,1.6,1.4,1.7c0,0,0.1,0,0.1,0c0.8,0,1.5-0.6,1.5-1.4
				C474.1,285.3,473.5,284.6,472.6,284.5z"/>
			<path class="st3" d="M472.1,290.7c-0.9-0.1-1.6,0.5-1.7,1.4c0,0,0,0,0,0c-0.1,0.8,0.5,1.6,1.4,1.7c0,0,0.1,0,0.1,0
				c0.8,0,1.5-0.6,1.6-1.4C473.5,291.5,472.9,290.7,472.1,290.7z"/>
			<path class="st3" d="M447.9,378.7c-0.8-0.1-1.6,0.5-1.7,1.4c-0.1,0.9,0.5,1.6,1.4,1.7c0.1,0,0.1,0,0.2,0c0.8,0,1.5-0.6,1.5-1.4
				C449.4,379.6,448.8,378.8,447.9,378.7z"/>
			<path class="st3" d="M473.8,272.1c-0.9-0.1-1.6,0.5-1.7,1.4c-0.1,0.9,0.5,1.6,1.4,1.7c0,0,0.1,0,0.1,0c0.8,0,1.5-0.6,1.6-1.4
				C475.3,272.9,474.7,272.2,473.8,272.1z"/>
			<path class="st3" d="M474.4,265.9c-0.9-0.1-1.6,0.5-1.7,1.4c-0.1,0.9,0.5,1.6,1.4,1.7c0,0,0.1,0,0.1,0c0.8,0,1.5-0.6,1.5-1.4
				C475.9,266.8,475.3,266,474.4,265.9z"/>
			<path class="st3" d="M473.2,278.3c-0.9-0.1-1.6,0.5-1.7,1.4c-0.1,0.9,0.5,1.6,1.4,1.7c0,0,0.1,0,0.1,0c0.8,0,1.5-0.6,1.5-1.4h0
				C474.7,279.1,474.1,278.4,473.2,278.3z"/>
			<path class="st3" d="M431.9,386.4c-0.8-0.3-1.7,0-2,0.8c-0.3,0.8,0,1.7,0.8,2c0.2,0.1,0.4,0.1,0.6,0.1c0.6,0,1.2-0.3,1.4-0.9
				C433.1,387.7,432.7,386.8,431.9,386.4z"/>
			<path class="st3" d="M415.3,340c0.8-0.1,1.4-0.9,1.3-1.8c-0.1-0.8-0.9-1.4-1.8-1.3c-0.8,0.1-1.4,0.9-1.3,1.8
				c0.1,0.8,0.8,1.3,1.5,1.3C415.1,340.1,415.2,340.1,415.3,340z"/>
			<path class="st3" d="M414.3,333.9c0.8-0.1,1.4-0.9,1.3-1.8c0,0,0,0,0,0c-0.1-0.9-0.9-1.4-1.8-1.3c-0.8,0.1-1.4,0.9-1.3,1.8
				c0.1,0.8,0.8,1.3,1.5,1.3C414.1,333.9,414.2,333.9,414.3,333.9z"/>
			<path class="st3" d="M416.2,346.2c0.9-0.1,1.4-0.9,1.3-1.8c-0.1-0.8-0.9-1.4-1.8-1.3c-0.8,0.1-1.4,0.9-1.3,1.8
				c0.1,0.8,0.8,1.3,1.5,1.3C416,346.2,416.1,346.2,416.2,346.2z"/>
			<path class="st3" d="M417.2,352.3c0.8-0.1,1.4-0.9,1.3-1.8c-0.1-0.8-0.9-1.4-1.8-1.3c-0.9,0.1-1.4,0.9-1.3,1.8
				c0.1,0.8,0.8,1.3,1.5,1.3C417,352.3,417.1,352.3,417.2,352.3z"/>
			<path class="st3" d="M419,364.6c0.8-0.1,1.4-0.9,1.3-1.8c-0.1-0.8-0.9-1.4-1.8-1.3c-0.9,0.1-1.4,0.9-1.3,1.8
				c0.1,0.8,0.8,1.3,1.5,1.3C418.9,364.6,419,364.6,419,364.6z"/>
			<path class="st3" d="M413.4,327.8c0.8-0.1,1.4-0.9,1.3-1.8c-0.1-0.9-0.9-1.4-1.8-1.3c-0.8,0.1-1.4,0.9-1.3,1.8
				c0.1,0.8,0.8,1.3,1.5,1.3C413.2,327.8,413.3,327.8,413.4,327.8z"/>
			<path class="st3" d="M418.1,358.5c0.8-0.1,1.4-0.9,1.3-1.8c-0.1-0.8-0.9-1.4-1.8-1.3c-0.9,0.1-1.4,0.9-1.3,1.8
				c0.1,0.8,0.8,1.3,1.5,1.3C417.9,358.5,418,358.5,418.1,358.5z"/>
			<path class="st3" d="M409.4,297c0.9-0.1,1.5-0.8,1.4-1.7c-0.1-0.8-0.8-1.5-1.7-1.4c-0.9,0.1-1.5,0.8-1.4,1.7
				c0.1,0.8,0.7,1.4,1.5,1.4C409.3,297,409.3,297,409.4,297z"/>
			<path class="st3" d="M412.4,321.6c0.8-0.1,1.4-0.9,1.3-1.8c-0.1-0.8-0.9-1.4-1.8-1.3c-0.9,0.1-1.4,0.9-1.3,1.8
				c0.1,0.8,0.8,1.3,1.5,1.3C412.3,321.6,412.3,321.6,412.4,321.6z"/>
			<path class="st3" d="M408.8,290.8c0.8-0.1,1.5-0.8,1.4-1.7c-0.1-0.9-0.8-1.5-1.7-1.4c-0.9,0.1-1.5,0.8-1.4,1.7
				c0.1,0.8,0.8,1.4,1.6,1.4C408.7,290.8,408.7,290.8,408.8,290.8z"/>
			<path class="st3" d="M410,303.2c0.9-0.1,1.5-0.8,1.4-1.7c-0.1-0.9-0.8-1.5-1.7-1.4c-0.8,0.1-1.5,0.8-1.4,1.7
				c0.1,0.8,0.8,1.4,1.5,1.4C409.9,303.2,409.9,303.2,410,303.2z"/>
			<path class="st3" d="M446.3,381.9c-0.8,0.3-1.3,1.1-1,2c0.2,0.7,0.8,1.1,1.5,1.1c0.1,0,0.3,0,0.5-0.1c0.8-0.3,1.3-1.1,1-2
				C448,382,447.1,381.6,446.3,381.9z"/>
			<path class="st3" d="M411.5,315.5c0.8-0.1,1.4-0.9,1.3-1.8c-0.1-0.8-0.9-1.4-1.8-1.3c-0.9,0.1-1.4,0.9-1.3,1.8
				c0.1,0.8,0.8,1.3,1.5,1.3C411.3,315.5,411.4,315.5,411.5,315.5z"/>
			<path class="st3" d="M410.6,309.3c0.8-0.1,1.5-0.8,1.4-1.7c-0.1-0.9-0.8-1.5-1.7-1.4c-0.9,0.1-1.5,0.8-1.4,1.7
				c0.1,0.8,0.8,1.4,1.5,1.4C410.5,309.4,410.5,309.4,410.6,309.3z"/>
			<path class="st3" d="M434,380.6c-0.8-0.3-1.7,0.2-2,1c-0.3,0.8,0.2,1.7,1,2c0.2,0,0.3,0.1,0.5,0.1c0.7,0,1.3-0.4,1.5-1.1
				C435.3,381.7,434.8,380.8,434,380.6z"/>
			<path class="st3" d="M420,370.7c0.8-0.1,1.4-0.9,1.3-1.8c-0.1-0.9-0.9-1.4-1.8-1.3c-0.8,0.1-1.4,0.9-1.3,1.8
				c0.1,0.8,0.8,1.3,1.5,1.3C419.8,370.8,419.9,370.8,420,370.7z"/>
			<path class="st3" d="M435.9,374.7c-0.8-0.3-1.7,0.2-1.9,1c-0.3,0.8,0.2,1.7,1,2c0.1,0,0.3,0.1,0.5,0.1c0.7,0,1.3-0.4,1.5-1.1
				C437.2,375.8,436.7,374.9,435.9,374.7z"/>
			<path class="st3" d="M442.6,365.1c-0.2-0.8-1.1-1.2-1.8-1c-0.1-0.6-0.5-1.1-1.1-1.2c-0.8-0.3-1.7,0.2-2,1c-0.3,0.8,0.2,1.7,1,2
				c0.3,0.1,0.6,0.1,0.8,0c0,0.1,0,0.2,0,0.2c0.2,0.7,0.8,1.1,1.5,1.1c0.2,0,0.3,0,0.5-0.1C442.4,366.8,442.8,365.9,442.6,365.1z"/>
			<path class="st3" d="M444.5,371c-0.3-0.8-1.1-1.3-1.9-1c-0.8,0.3-1.3,1.1-1,2c0.2,0.7,0.8,1.1,1.5,1.1c0.1,0,0.3,0,0.5-0.1
				C444.3,372.7,444.7,371.8,444.5,371z"/>
			<path class="st3" d="M446.4,376.9c-0.3-0.8-1.1-1.3-2-1c-0.8,0.3-1.3,1.1-1,1.9c0.2,0.7,0.8,1.1,1.5,1.1c0.1,0,0.3,0,0.5-0.1
				C446.2,378.6,446.6,377.8,446.4,376.9z"/>
			<path class="st3" d="M437.8,368.8c-0.8-0.3-1.7,0.2-2,1c-0.3,0.8,0.2,1.7,1,2c0.2,0,0.3,0.1,0.5,0.1c0.7,0,1.3-0.4,1.5-1.1
				C439,369.9,438.6,369,437.8,368.8z"/>
			<path class="st3" d="M408.1,284.6c0.9-0.1,1.5-0.8,1.4-1.7c-0.1-0.9-0.8-1.5-1.7-1.4c-0.9,0.1-1.5,0.8-1.4,1.7
				c0.1,0.8,0.8,1.4,1.6,1.4C408,284.6,408.1,284.6,408.1,284.6z"/>
			<path class="st3" d="M420.9,376.9c0.8-0.1,1.4-0.9,1.3-1.8c-0.1-0.8-0.9-1.4-1.8-1.3c-0.8,0.1-1.4,0.9-1.3,1.8
				c0.1,0.8,0.8,1.3,1.5,1.3C420.8,376.9,420.9,376.9,420.9,376.9z"/>
			<path class="st3" d="M422.8,389.2c0.9-0.1,1.4-0.9,1.3-1.8c-0.1-0.8-0.9-1.4-1.8-1.3c-0.8,0.1-1.4,0.9-1.3,1.8
				c0.1,0.8,0.8,1.3,1.5,1.3C422.7,389.2,422.7,389.2,422.8,389.2z"/>
			<path class="st3" d="M421.9,383c0.8-0.1,1.4-0.9,1.3-1.8c-0.1-0.8-0.9-1.4-1.8-1.3c-0.8,0.1-1.4,0.9-1.3,1.8h0
				c0.1,0.8,0.8,1.3,1.5,1.3C421.7,383,421.8,383,421.9,383z"/>
			<path class="st3" d="M423.8,395.3c0.8-0.1,1.4-0.9,1.3-1.8c-0.1-0.8-0.9-1.4-1.8-1.3c-0.8,0.1-1.4,0.9-1.3,1.8
				c0.1,0.8,0.8,1.3,1.5,1.3C423.6,395.3,423.7,395.3,423.8,395.3z"/>
			<path class="st3" d="M429.4,392.1c-0.8-0.3-1.7,0-2.1,0.8c-0.3,0.8,0,1.7,0.8,2c0.2,0.1,0.4,0.1,0.6,0.1c0.6,0,1.2-0.3,1.4-0.9
				C430.6,393.4,430.2,392.5,429.4,392.1z"/>
			<g>
				<path class="st3" d="M352.4,392.6c0.8-0.2,1.3-1,1.1-1.8c-0.2-0.8-1-1.4-1.8-1.2c0,0-0.1,0-0.1,0l0,0l-8.3,2.3l-5.6,30l-6.2-58
					l-7.3-58.1l-7.8-81.7l-9.9,16.8l-7.4,39.7l-6.1,20.8l-5.8-13.1l-9.9-8.4l-7.4,79.6l-5.6-3.2h-9.1l-6,34l-5.8-34.8l-7.3-41.5
					l-8-79.7l-17,48.1l-0.1,0.2l-7.2,67.4h-4.7l-8.4-33.2l-8.9,27.9l-7.1,14.2l-7.5,6.4l-5.9,30.2l-5.8-29.6l-7.4-50l-7.5-36
					l-9.8-5.6l-7.7,41.2l-7,8l-5.6,10.9l-8.3-39.9L94.1,357l-14.6,12.5l-6,40.7l-5.7-33.9l-7.3-56.1l-7.5-29.9l-9.8-5.6l-7.7,41.7
					l-6.2,38.9L23.7,347l-7.4-16.8l-2.8,1.3l7.3,16.5l9.3,31.4l8.4-52.5l6.9-37.3l4.8,2.8l7.2,28.4l7.3,56.1l9,53.4l8.7-59.1
					L97,358.6l6.2-45.6l6.4,30.8l9.3-18.3l7.5-8.5l7-37.8l4.8,2.7l7.2,34.6l7.4,50l8.8,45.2l8.8-44.7l7.1-6.1l7.5-14.8l5.8-17.9
					l6.3,25h9.9l7.5-69.8l12.3-34.9l6.6,66l7.3,41.6l8.8,52.6l8.7-49.2h5.6l9,5.2l7.3-78.4l4.8,4.1l8.9,20.2l8.5-29l7.3-39.4
					l4.7-8.1l6.9,72.2l7.3,58.2l8.5,79.2l9.1-49L352.4,392.6L352.4,392.6z"/>
			</g>
		</g>
	</g>
	<g>
		<g>
			<path class="st1" d="M365.6,357.2c-0.8-0.1-1.6,0.5-1.8,1.3c-0.1,0.9,0.5,1.6,1.3,1.8c0.1,0,0.1,0,0.2,0c0.8,0,1.4-0.6,1.5-1.3
				C367,358.2,366.4,357.4,365.6,357.2z"/>
			<path class="st1" d="M367.4,345c-0.9-0.1-1.6,0.5-1.8,1.3c-0.1,0.8,0.5,1.6,1.3,1.8c0.1,0,0.1,0,0.2,0c0.8,0,1.4-0.6,1.5-1.3
				C368.8,345.9,368.2,345.1,367.4,345z"/>
			<path class="st1" d="M368.3,338.8c-0.8-0.1-1.6,0.5-1.8,1.3c-0.1,0.8,0.5,1.6,1.3,1.8c0.1,0,0.1,0,0.2,0c0.8,0,1.4-0.6,1.5-1.3
				C369.7,339.7,369.1,338.9,368.3,338.8z"/>
			<path class="st1" d="M372.5,337.9c-0.8-0.3-1.7,0.1-2,0.9c-0.3,0.8,0.1,1.7,0.9,2c0.2,0.1,0.4,0.1,0.6,0.1c0.6,0,1.2-0.4,1.4-1
				C373.7,339.2,373.3,338.2,372.5,337.9z"/>
			<path class="st1" d="M366.5,351.1c-0.8-0.1-1.6,0.5-1.8,1.3c-0.1,0.8,0.5,1.6,1.3,1.8c0.1,0,0.2,0,0.2,0c0.8,0,1.4-0.6,1.5-1.3
				C367.9,352,367.3,351.2,366.5,351.1z"/>
			<path class="st1" d="M394,330c-0.7-0.5-1.7-0.2-2.1,0.5c-0.5,0.7-0.2,1.7,0.5,2.1c0.3,0.2,0.5,0.2,0.8,0.2c0.5,0,1-0.3,1.3-0.7
				C394.9,331.4,394.7,330.5,394,330z"/>
			<path class="st1" d="M388.9,334.5c-0.8,0.3-1.3,1.1-1,1.9c0.2,0.7,0.8,1.1,1.5,1.1c0.2,0,0.3,0,0.5-0.1c0.8-0.3,1.3-1.1,1-2
				C390.6,334.7,389.7,334.2,388.9,334.5z"/>
			<path class="st1" d="M377.1,338.7c-0.8,0.3-1.2,1.2-0.9,2c0.2,0.6,0.8,1,1.4,1c0.2,0,0.4,0,0.6-0.1c0.8-0.3,1.2-1.2,0.9-2
				C378.8,338.7,377.9,338.3,377.1,338.7z"/>
			<path class="st1" d="M383,336.4c-0.8,0.3-1.3,1.1-1,1.9c0.2,0.7,0.8,1.1,1.5,1.1c0.1,0,0.3,0,0.5-0.1c0.8-0.3,1.3-1.1,1-2
				C384.7,336.6,383.8,336.1,383,336.4z"/>
			<path class="st1" d="M358.3,376.4c0.8-0.2,1.4-1,1.2-1.9c-0.2-0.8-1-1.4-1.9-1.2c-0.8,0.2-1.4,1-1.2,1.9c0.2,0.7,0.8,1.2,1.5,1.2
				C358.1,376.5,358.2,376.5,358.3,376.4z"/>
			<path class="st1" d="M356.9,370.4c0.8-0.2,1.4-1,1.2-1.9c-0.2-0.8-1-1.4-1.9-1.2c-0.8,0.2-1.4,1-1.2,1.9c0.2,0.7,0.8,1.2,1.5,1.2
				C356.7,370.4,356.8,370.4,356.9,370.4z"/>
			<path class="st1" d="M397.3,324.8c-0.7-0.5-1.7-0.2-2.1,0.5c-0.5,0.7-0.3,1.7,0.5,2.1c0.3,0.2,0.6,0.2,0.8,0.2
				c0.5,0,1-0.3,1.3-0.7C398.3,326.2,398.1,325.2,397.3,324.8z"/>
			<path class="st1" d="M364.7,363.4c-0.8-0.1-1.6,0.5-1.8,1.3c-0.1,0.8,0.5,1.6,1.3,1.8c0.1,0,0.1,0,0.2,0c0.8,0,1.4-0.5,1.5-1.3
				C366.1,364.3,365.5,363.5,364.7,363.4z"/>
			<path class="st1" d="M353.1,358.2C353.2,358.2,353.2,358.2,353.1,358.2c0.2,0.1,0.4,0.1,0.6,0.1c0.1,0,0.2,0,0.4,0
				c0,0,0.1,0,0.1-0.1c0.1,0,0.2-0.1,0.3-0.1c0.1-0.1,0.2-0.1,0.3-0.2c0,0,0.1,0,0.1-0.1c0,0,0-0.1,0.1-0.1c0.1-0.1,0.1-0.2,0.2-0.3
				c0-0.1,0.1-0.2,0.1-0.3c0-0.1,0-0.2,0-0.3c0-0.1,0-0.2,0-0.3c0,0,0-0.1,0-0.1c0,0,0-0.1-0.1-0.1c0-0.1-0.1-0.2-0.1-0.3
				c-0.1-0.1-0.1-0.2-0.2-0.2c0,0-0.1-0.1-0.1-0.1l-7.3-6.7c-0.4-0.3-0.9-0.5-1.4-0.4l-6,1.2l-6.9-17.5c-0.2-0.4-0.5-0.8-1-0.9
				l-7.2-2.2l-7.3-2.9c-0.2-0.1-0.5-0.1-0.8-0.1l-6.8,0.9l-6.4-4l-7.1-25.2l-7.3-26.6c-0.2-0.7-0.8-1.1-1.5-1.1c0,0,0,0,0,0
				c-0.7,0-1.3,0.5-1.5,1.1l-7.3,26.2l-7.1,15.5l-5.9,4.1l-6.4-6.4c-0.4-0.4-1-0.6-1.6-0.4l-7.3,2.4c-0.3,0.1-0.5,0.3-0.7,0.5
				l-7.3,8.6c0,0.1-0.1,0.1-0.1,0.2l-6.5,10.3l-6-4.2c-0.5-0.3-1.1-0.4-1.7-0.1l-6.2,3.6l-6.5-7.3c-0.3-0.4-0.8-0.6-1.4-0.5
				c-0.5,0.1-1,0.4-1.2,0.8l-6.9,13.4l-6.4,0.4c-0.1,0-0.1,0-0.2,0l-6,1l-6.9-24.5c-0.2-0.6-0.6-1-1.2-1.1c-0.6-0.1-1.1,0.1-1.5,0.5
				l-7.3,8.8c0,0-0.1,0.1-0.1,0.1l-5.9,8.6l-6.1-10.7c-0.3-0.5-0.8-0.8-1.4-0.8c-0.6,0-1.1,0.4-1.3,0.9l-7.2,14.6l-6.7,5.5l-6.4,1
				l-6.9-3.3c-0.6-0.3-1.4-0.2-1.8,0.3l-5.2,5.7l-6.8-39.8c-0.1-0.7-0.7-1.2-1.4-1.3c-0.7,0-1.4,0.4-1.6,1.1l-7,21.8l-6.3,0.7
				c-0.2,0-0.4,0.1-0.5,0.2l-7,3.5l-6.9-0.3c-0.5,0-1,0.2-1.4,0.7L81.4,342l-6.9,6.8l-6,1.5l-6.7-7.4c-0.5-0.5-1.2-0.7-1.8-0.4
				l-7.1,3.3l-7,0.3c-0.2,0-0.4,0.1-0.6,0.1l-7.3,3.3c-0.1,0-0.1,0.1-0.2,0.1l-6.4,4.2l-6.5-5l-7.3-5.8c-0.7-0.5-1.6-0.4-2.2,0.3
				c-0.5,0.7-0.4,1.6,0.3,2.2l7.4,5.8l7.3,5.7c0.5,0.4,1.2,0.4,1.8,0.1l7.2-4.7l7-3.1l7-0.3c0.2,0,0.4-0.1,0.6-0.1l6.3-2.9l6.5,7.3
				c0.4,0.4,1,0.6,1.5,0.5l7.3-1.8c0.3-0.1,0.5-0.2,0.7-0.4l7.3-7.2c0.1-0.1,0.1-0.1,0.2-0.2l6.8-9.9l6.5,0.3c0.3,0,0.5,0,0.8-0.2
				l7.1-3.5l7-0.7c0.6-0.1,1.1-0.5,1.3-1.1l5.4-16.8l6.2,36.7c0.1,0.6,0.5,1.1,1.1,1.2c0.6,0.2,1.2,0,1.6-0.4l6.6-7.2l6.3,3.1
				c0.3,0.1,0.6,0.2,0.9,0.1l7.3-1.1c0.3,0,0.5-0.2,0.7-0.3l7.3-6c0.2-0.1,0.3-0.3,0.4-0.5l6-12.3l5.9,10.3c0.3,0.5,0.8,0.8,1.3,0.8
				c0.5,0,1-0.2,1.3-0.7l7.3-10.6l5.4-6.5l6.5,23c0.2,0.8,0.9,1.2,1.7,1.1l7.3-1.2l7.2-0.4c0.5,0,1-0.4,1.3-0.8l6.3-12.1l5.8,6.6
				c0.5,0.6,1.3,0.7,1.9,0.3l6.5-3.7l6.5,4.6c0.3,0.2,0.8,0.3,1.2,0.3c0.4-0.1,0.8-0.3,1-0.7l7.3-11.6l7-8.2l6-1.9l6.7,6.6
				c0.5,0.5,1.4,0.6,2,0.2l7.3-5.1c0.2-0.2,0.4-0.4,0.5-0.6l7.3-16c0-0.1,0.1-0.2,0.1-0.2l5.8-20.9l5.9,21.2l7.3,25.8
				c0.1,0.4,0.3,0.7,0.7,0.9l7.3,4.6c0.3,0.2,0.7,0.3,1,0.2l6.9-0.9l7.1,2.7l6.6,2l7.1,18c0.3,0.7,1,1.1,1.8,1l6.5-1.3l6.8,6.2
				c0,0,0,0,0,0C352.8,358.1,353,358.2,353.1,358.2z"/>
			<path class="st1" d="M355.5,364.3c0.8-0.2,1.4-1,1.2-1.9c-0.2-0.8-1-1.4-1.9-1.2c-0.8,0.2-1.4,1-1.2,1.9c0.2,0.7,0.8,1.2,1.5,1.2
				C355.2,364.4,355.4,364.4,355.5,364.3z"/>
			<path class="st1" d="M362,381.8c-0.8-0.1-1.6,0.5-1.8,1.3c-0.1,0.8,0.5,1.6,1.3,1.8c0.1,0,0.1,0,0.2,0c0.8,0,1.4-0.6,1.5-1.3
				C363.4,382.7,362.8,382,362,381.8z"/>
			<path class="st1" d="M363.8,369.5c-0.8-0.1-1.6,0.5-1.8,1.3c-0.1,0.8,0.5,1.6,1.3,1.8c0.1,0,0.1,0,0.2,0c0.8,0,1.4-0.6,1.5-1.3
				C365.2,370.5,364.6,369.7,363.8,369.5z"/>
			<path class="st1" d="M359.7,382.5c0.8-0.2,1.4-1,1.2-1.9c-0.2-0.8-1-1.4-1.9-1.2c-0.8,0.2-1.4,1-1.2,1.9c0.2,0.7,0.8,1.2,1.5,1.2
				C359.5,382.5,359.6,382.5,359.7,382.5z"/>
			<path class="st1" d="M360.4,385.5c-0.8,0.2-1.4,1-1.2,1.9c0.2,0.7,0.8,1.2,1.5,1.2c0.1,0,0.2,0,0.3,0c0.8-0.2,1.4-1,1.2-1.9
				C362.1,385.8,361.2,385.3,360.4,385.5z"/>
			<path class="st1" d="M362.9,375.7c-0.9-0.1-1.6,0.5-1.8,1.3c-0.1,0.8,0.5,1.6,1.3,1.8c0.1,0,0.1,0,0.2,0c0.8,0,1.4-0.6,1.5-1.3
				C364.3,376.6,363.7,375.8,362.9,375.7z"/>
			<path class="st1" d="M456.2,311.8c-0.5,0.7-0.4,1.7,0.3,2.2c0.3,0.2,0.6,0.3,0.9,0.3c0.5,0,0.9-0.2,1.2-0.6
				c0.5-0.7,0.4-1.7-0.3-2.2C457.7,311,456.7,311.1,456.2,311.8z"/>
			<path class="st1" d="M459.9,306.9c-0.5,0.7-0.4,1.7,0.3,2.2c0.3,0.2,0.6,0.3,0.9,0.3c0.5,0,0.9-0.2,1.2-0.6
				c0.5-0.7,0.4-1.7-0.3-2.2C461.4,306,460.4,306.2,459.9,306.9z"/>
			<path class="st1" d="M466.1,303.7c-0.8-0.3-1.7,0.2-2,1c-0.3,0.8,0.2,1.7,1,2c0.2,0.1,0.3,0.1,0.5,0.1c0.6,0,1.2-0.4,1.5-1.1
				C467.4,304.9,466.9,304,466.1,303.7z"/>
			<path class="st1" d="M399,326.3c-0.7,0.5-0.9,1.4-0.4,2.1c0.3,0.4,0.8,0.7,1.3,0.7c0.3,0,0.6-0.1,0.9-0.3
				c0.7-0.5,0.9-1.4,0.4-2.1C400.7,326,399.8,325.8,399,326.3z"/>
			<path class="st1" d="M451.9,315.7c-0.7,0.5-0.8,1.5-0.3,2.2c0.3,0.4,0.8,0.6,1.2,0.6c0.3,0,0.7-0.1,1-0.3
				c0.7-0.5,0.8-1.5,0.3-2.2C453.6,315.3,452.6,315.2,451.9,315.7z"/>
			<path class="st1" d="M475.5,299.9c-0.7-0.5-1.7-0.2-2.1,0.5c-0.5,0.7-0.3,1.7,0.5,2.1c0.3,0.2,0.6,0.2,0.8,0.2
				c0.5,0,1-0.3,1.3-0.7C476.4,301.3,476.2,300.4,475.5,299.9z"/>
			<path class="st1" d="M478.8,294.7c-0.7-0.5-1.7-0.3-2.1,0.5c-0.5,0.7-0.2,1.7,0.5,2.1c0.3,0.2,0.5,0.2,0.8,0.2
				c0.5,0,1-0.2,1.3-0.7C479.8,296.1,479.5,295.2,478.8,294.7z"/>
			<path class="st1" d="M472.1,305.2c-0.7-0.5-1.7-0.2-2.1,0.5c-0.5,0.7-0.2,1.7,0.5,2.1c0.3,0.2,0.5,0.2,0.8,0.2
				c0.5,0,1-0.3,1.3-0.7C473,306.6,472.8,305.6,472.1,305.2z"/>
			<path class="st1" d="M482.8,289.9c-0.7-0.5-1.7-0.4-2.2,0.2c-0.5,0.7-0.4,1.6,0.2,2.2c0.3,0.2,0.6,0.3,1,0.3
				c0.5,0,0.9-0.2,1.2-0.6C483.6,291.4,483.5,290.5,482.8,289.9z"/>
			<path class="st1" d="M442.3,318c-0.8-0.4-1.7-0.1-2.1,0.7c-0.4,0.8-0.1,1.7,0.7,2.1c0.2,0.1,0.4,0.2,0.7,0.2
				c0.6,0,1.1-0.3,1.4-0.9C443.4,319.3,443.1,318.3,442.3,318z"/>
			<path class="st1" d="M447.9,318.4c-0.9-0.1-1.6,0.5-1.7,1.4c-0.1,0.9,0.5,1.6,1.4,1.7c0,0,0.1,0,0.2,0c0.8,0,1.5-0.6,1.5-1.4
				C449.4,319.2,448.8,318.5,447.9,318.4z"/>
			<path class="st1" d="M408.5,334.6c-0.8-0.2-1.7,0.3-1.9,1.1c-0.2,0.8,0.3,1.7,1.1,1.9c0.1,0,0.3,0,0.4,0c0.7,0,1.3-0.5,1.5-1.2
				C409.8,335.7,409.3,334.8,408.5,334.6z"/>
			<path class="st1" d="M416.9,341.8c-0.6,0.6-0.6,1.6,0,2.2c0.3,0.3,0.7,0.5,1.1,0.5c0.4,0,0.8-0.2,1.1-0.5c0.6-0.6,0.6-1.6,0-2.2
				C418.5,341.2,417.5,341.2,416.9,341.8z"/>
			<path class="st1" d="M412.5,337.4c-0.6,0.6-0.6,1.6,0,2.2c0.3,0.3,0.7,0.4,1.1,0.4c0.4,0,0.8-0.1,1.1-0.4c0.6-0.6,0.6-1.6,0-2.2
				C414.1,336.8,413.1,336.8,412.5,337.4z"/>
			<path class="st1" d="M402.5,331.5c-0.7,0.5-0.9,1.4-0.4,2.1c0.3,0.4,0.8,0.7,1.3,0.7c0.3,0,0.6-0.1,0.9-0.3
				c0.7-0.5,0.9-1.4,0.4-2.1C404.2,331.2,403.2,331,402.5,331.5z"/>
			<path class="st1" d="M431.8,334.6c-0.6,0.6-0.6,1.6,0,2.2c0.3,0.3,0.7,0.4,1.1,0.4c0.4,0,0.8-0.1,1.1-0.5c0.6-0.6,0.6-1.6,0-2.2
				C433.3,334,432.4,334,431.8,334.6z"/>
			<path class="st1" d="M439.6,323.5c-0.8-0.4-1.7-0.1-2.1,0.7c-0.4,0.8,0,1.7,0.7,2.1c0.2,0.1,0.4,0.2,0.7,0.2
				c0.6,0,1.1-0.3,1.4-0.9C440.6,324.9,440.3,323.9,439.6,323.5z"/>
			<path class="st1" d="M422.7,341.7c-0.8,0.3-1.2,1.2-0.9,2c0.2,0.6,0.8,1,1.4,1c0.2,0,0.4,0,0.6-0.1c0.8-0.3,1.2-1.2,0.9-2
				C424.3,341.8,423.4,341.4,422.7,341.7z"/>
			<path class="st1" d="M436.8,329.1c-0.8-0.4-1.7,0-2.1,0.7c-0.4,0.8,0,1.7,0.7,2.1c0.2,0.1,0.4,0.2,0.7,0.2c0.6,0,1.1-0.3,1.4-0.9
				C437.9,330.4,437.6,329.5,436.8,329.1z"/>
			<path class="st1" d="M427.4,339c-0.6,0.6-0.6,1.6,0,2.2c0.3,0.3,0.7,0.4,1.1,0.4c0.4,0,0.8-0.1,1.1-0.5c0.6-0.6,0.6-1.6,0-2.2
				C429,338.4,428,338.4,427.4,339z"/>
		</g>
	</g>
	<g>
		<g>
			<g>
				<path class="st2" d="M413.3,337.3c-0.9,0-1.6,0.7-1.6,1.5c0,0.9,0.7,1.6,1.5,1.6h0c0.9,0,1.6-0.7,1.6-1.5
					C414.9,338,414.2,337.3,413.3,337.3z"/>
			</g>
			<g>
				<path class="st2" d="M395.1,334.3c-0.9-0.1-1.6,0.6-1.7,1.4c-0.1,0.8,0.6,1.6,1.4,1.7c0,0,0.1,0,0.1,0c0.8,0,1.5-0.6,1.6-1.4
					C396.5,335.1,395.9,334.4,395.1,334.3z"/>
			</g>
			<g>
				<path class="st2" d="M401.4,335.3c-0.8-0.2-1.7,0.4-1.8,1.2c-0.2,0.8,0.4,1.7,1.2,1.8c0.1,0,0.2,0,0.3,0c0.7,0,1.4-0.5,1.5-1.2
					C402.7,336.3,402.2,335.4,401.4,335.3z"/>
			</g>
			<g>
				<path class="st2" d="M407.4,336.4c-0.8-0.1-1.6,0.4-1.8,1.3c-0.1,0.8,0.4,1.7,1.3,1.8c0.1,0,0.2,0,0.2,0c0.7,0,1.4-0.5,1.5-1.3
					C408.8,337.4,408.3,336.6,407.4,336.4z"/>
			</g>
			<g>
				<path class="st2" d="M388.5,334.2c-0.8,0.1-1.4,0.9-1.3,1.8c0.1,0.8,0.8,1.3,1.5,1.3c0.1,0,0.1,0,0.2,0c0.8-0.1,1.4-0.9,1.3-1.8
					C390.2,334.6,389.4,334,388.5,334.2z"/>
			</g>
			<g>
				<path class="st2" d="M376.3,337.3c-0.8,0.3-1.2,1.2-0.9,2c0.2,0.6,0.8,1,1.5,1c0.2,0,0.4,0,0.5-0.1c0.8-0.3,1.2-1.2,0.9-2
					C378,337.4,377.1,337,376.3,337.3z"/>
			</g>
			<g>
				<path class="st2" d="M353.8,346.2L353.8,346.2l-7.1-0.6l-7-2.4l-7.1-4.1l-7.1-5.2l-7.3-6.3l-7.4-6.7l-7.3-6.2l-7.4-5.1l-7.6-3.3
					l-8-1.3l-7.6,1.5l-7.7,3.5l-7.5,4.6l-7.2,4.3l-7.2,3.6l-7.3,3.2l-14.6,6l-7.1,2.1l-7.1,1.1l-7.1,0.1l-7.1-1l-7.3-1.8l-7.3-1.7
					l-7.8-0.4l-7.5,1.7l-7.6,3.3l-7.2,3l-6.9,1.3l-6.9-0.8l-7.1-2.6l-7.3-3.5l-7.7-2.9l-7.8-0.5l-7.6,2.3l-7.7,4.2l-7.3,4.5
					l-7.1,3.6l-7.1,2.3l-7.1,1.3l-7.2,0.9l-7.3,0.4l-7.3,0.2l-7.2,0l-7.1-0.8l-7.2-2l-0.8,3l7.3,2l7.6,0.9l7.5,0l7.4-0.2l7.4-0.4
					l7.4-0.9l7.3-1.4l7.5-2.4l7.5-3.8l7.4-4.6l7.2-3.9l6.9-2.1l6.8,0.4l7.1,2.7l7.3,3.5l7.5,2.8l7.9,1l7.6-1.5l7.7-3.2l7.2-3.2
					l7-1.6l7,0.3l7.2,1.6l7.3,1.8l7.6,1l7.4-0.1l7.6-1.1l7.5-2.2l14.8-6.1l7.4-3.2l7.4-3.6l7.4-4.3l7.3-4.5l7.1-3.3l6.9-1.3l6.9,1.1
					l7,3l7.1,4.9l7.2,6.1l7.4,6.7l7.4,6.4l7.3,5.4l7.5,4.3l7.6,2.6l7.7,0.7l0,0c0,0,0.1,0,0.1,0c0.1,0,0.2,0,0.3,0
					c0.8-0.2,1.4-1,1.2-1.9C355.1,346.7,354.5,346.2,353.8,346.2z"/>
			</g>
			<g>
				<path class="st2" d="M382.1,335.2c-0.8,0.3-1.2,1.2-0.9,2c0.2,0.6,0.8,1,1.5,1c0.2,0,0.4,0,0.5-0.1c0.8-0.3,1.2-1.2,0.9-2
					C383.8,335.3,382.9,334.9,382.1,335.2z"/>
			</g>
			<g>
				<path class="st2" d="M364.9,342.6c-0.8,0.3-1.1,1.3-0.8,2.1c0.3,0.6,0.8,0.9,1.4,0.9c0.2,0,0.4,0,0.6-0.1c0.8-0.3,1.1-1.3,0.8-2
					C366.6,342.6,365.7,342.3,364.9,342.6z"/>
			</g>
			<g>
				<path class="st2" d="M370.5,340c-0.8,0.4-1.1,1.3-0.7,2.1c0.3,0.5,0.8,0.9,1.4,0.9c0.2,0,0.5,0,0.7-0.2c0.8-0.4,1.1-1.3,0.7-2.1
					C372.2,339.9,371.2,339.6,370.5,340z"/>
			</g>
			<g>
				<path class="st2" d="M419.5,337.3c-0.9,0-1.6,0.7-1.6,1.5c0,0.9,0.7,1.6,1.5,1.6c0,0,0,0,0,0c0.8,0,1.5-0.7,1.5-1.5
					C421.1,338.1,420.4,337.3,419.5,337.3z"/>
			</g>
			<g>
				<path class="st2" d="M359.4,344.8c-0.8,0.2-1.4,1-1.2,1.9c0.2,0.7,0.8,1.2,1.5,1.2c0.1,0,0.2,0,0.3,0c0.8-0.2,1.4-1,1.2-1.9
					C361.1,345.1,360.3,344.6,359.4,344.8z"/>
			</g>
			<g>
				<path class="st2" d="M463.3,305.3c-0.7,0.5-0.9,1.5-0.4,2.2c0.3,0.4,0.8,0.7,1.3,0.7c0.3,0,0.6-0.1,0.9-0.3
					c0.7-0.5,0.9-1.5,0.4-2.2C465,305,464,304.8,463.3,305.3z"/>
			</g>
			<g>
				<path class="st2" d="M468.4,301.7c-0.7,0.5-0.9,1.5-0.4,2.2c0.3,0.4,0.8,0.7,1.3,0.7c0.3,0,0.6-0.1,0.9-0.3
					c0.7-0.5,0.9-1.5,0.4-2.2C470.1,301.4,469.1,301.2,468.4,301.7z"/>
			</g>
			<g>
				<path class="st2" d="M458.4,309.2c-0.7,0.5-0.8,1.5-0.2,2.2c0.3,0.4,0.8,0.6,1.2,0.6c0.3,0,0.7-0.1,1-0.3
					c0.7-0.5,0.8-1.5,0.2-2.2C460,308.8,459.1,308.7,458.4,309.2z"/>
			</g>
			<g>
				<path class="st2" d="M473.9,298.4c-0.7,0.4-1,1.4-0.6,2.1c0.3,0.5,0.8,0.8,1.4,0.8c0.3,0,0.5-0.1,0.8-0.2c0.7-0.4,1-1.4,0.6-2.1
					C475.6,298.3,474.6,298,473.9,298.4z"/>
			</g>
			<g>
				<path class="st2" d="M481.5,296.1c-0.4-0.8-1.3-1.1-2.1-0.7c-0.8,0.4-1.1,1.3-0.7,2.1c0.3,0.5,0.8,0.8,1.4,0.8
					c0.2,0,0.5,0,0.7-0.2C481.5,297.8,481.9,296.9,481.5,296.1z"/>
			</g>
			<g>
				<path class="st2" d="M453.6,313.3c-0.6,0.6-0.7,1.6-0.1,2.2c0.3,0.3,0.7,0.5,1.1,0.5c0.4,0,0.8-0.1,1.1-0.4
					c0.6-0.6,0.7-1.6,0.1-2.2C455.2,312.8,454.2,312.7,453.6,313.3z"/>
			</g>
			<g>
				<path class="st2" d="M435.1,329.8c-0.7,0.5-0.8,1.5-0.2,2.2c0.3,0.4,0.8,0.6,1.2,0.6c0.3,0,0.7-0.1,1-0.4
					c0.7-0.5,0.8-1.5,0.2-2.2C436.8,329.3,435.8,329.2,435.1,329.8z"/>
			</g>
			<g>
				<path class="st2" d="M425.1,335.8c-0.8,0.2-1.3,1.1-1.1,1.9c0.2,0.7,0.8,1.1,1.5,1.1c0.1,0,0.3,0,0.4,0c0.8-0.2,1.3-1.1,1.1-1.9
					C426.8,336,425.9,335.5,425.1,335.8z"/>
			</g>
			<g>
				<path class="st2" d="M430.2,333.1c-0.7,0.4-1,1.4-0.5,2.1c0.3,0.5,0.8,0.8,1.3,0.8c0.3,0,0.5-0.1,0.8-0.2c0.7-0.4,1-1.4,0.5-2.1
					C431.9,332.9,430.9,332.7,430.2,333.1z"/>
			</g>
			<g>
				<path class="st2" d="M444.5,321.7c-0.6,0.6-0.7,1.6-0.1,2.2c0.3,0.3,0.7,0.5,1.1,0.5c0.4,0,0.8-0.1,1.1-0.4
					c0.6-0.6,0.7-1.6,0.1-2.2C446.1,321.2,445.1,321.1,444.5,321.7z"/>
			</g>
			<g>
				<path class="st2" d="M439.9,325.9c-0.7,0.5-0.8,1.5-0.2,2.2c0.3,0.4,0.7,0.6,1.2,0.6c0.3,0,0.7-0.1,1-0.3
					c0.7-0.5,0.8-1.5,0.2-2.2C441.6,325.4,440.6,325.3,439.9,325.9z"/>
			</g>
			<g>
				<path class="st2" d="M449,317.5c-0.6,0.6-0.7,1.6-0.1,2.2c0.3,0.3,0.7,0.5,1.1,0.5c0.4,0,0.7-0.1,1-0.4c0.6-0.6,0.7-1.6,0.1-2.2
					C450.6,317,449.7,316.9,449,317.5z"/>
			</g>
		</g>
	</g>
</g>
<g id="Hexagone">
	<g>
		<g>
			<g>
				<path class="st1" d="M245.5,0L0,141.7v283.5l245.5,141.7L491,425.2V141.7L245.5,0z M474.2,415.5l-228.7,132l-228.7-132V151.4
					l228.7-132l228.7,132V415.5z"/>
			</g>
		</g>
	</g>
</g>
<g id="Text">
	<g>
		<g>
			<path class="st1" d="M68.8,158.1l0.5,2.9c1.9-3.1,4.5-3.6,7.1-3.6c2.6,0,5.1,1,6.5,2.4l-2.8,5.4c-1.3-1.1-2.4-1.6-4.5-1.6
				c-3.3,0-6.2,1.7-6.2,6.3v13.2h-6.2v-25H68.8z"/>
			<path class="st1" d="M91.2,158v30.5c0,6.2-2.7,10.2-8.3,10.2c-1.8,0-3.8-0.5-5.5-1.7l2.2-4.8c1.1,0.5,2.1,0.8,3,0.7
				c2-0.1,2.5-1.7,2.5-4.4V158H91.2z M84.5,151c0,4.8,7.3,4.8,7.3,0C91.8,146.1,84.5,146.1,84.5,151z"/>
			<path class="st1" d="M122.5,147.6v35.5h-5.8l-0.4-3.5c-1.9,3-5,4-8.1,4c-7.4,0-12.9-4.9-12.9-13.1c0-8.6,5.4-13.1,12.8-13.1
				c2.6,0,6.8,1.4,8.2,4v-13.9H122.5z M101.5,170.6c0,4.4,3.1,7.4,7.1,7.4c3.9,0,7.3-2.8,7.3-7.4c0-4.4-3.4-7.3-7.3-7.3
				C104.7,163.3,101.5,166,101.5,170.6z"/>
			<path class="st3" d="M135.8,167.6v-5.5h5.1c3.6,0,7.4-1,7.5-4.3c0-2-1.6-4.7-7.3-4.7c-3.1,0-7.4,1.1-7.4,4.4H127
				c0-7.7,7.6-10.5,14.2-10.5c6.7,0,13.9,3.3,14,10.8c0,2.8-1.8,6-4.9,7c3.4,1.1,5.8,4.5,5.8,7.5c0,8.7-8.2,11.3-15,11.3
				c-6.8,0-14.5-2.8-14.5-10.9h6.8c0,3.7,4.9,4.9,7.8,4.9c3.4,0,7.9-1.4,7.9-5.2c0-2.1-1.2-4.8-7.6-4.8H135.8z"/>
			<path class="st1" d="M169.9,151v7.1h6.9v5.3h-7v10.8c0,2.4,1.3,3.6,3.3,3.6c1,0,2.1-0.3,3-0.8l1.7,5.3c-1.8,0.7-3.3,1-5.1,1.1
				c-5.4,0.2-9-2.9-9-9.1v-10.8H159v-5.3h4.7v-6.5L169.9,151z"/>
			<path class="st1" d="M187.1,158.1l0.5,2.9c1.9-3.1,4.5-3.6,7.1-3.6c2.6,0,5.1,1,6.5,2.4l-2.8,5.4c-1.3-1.1-2.4-1.6-4.5-1.6
				c-3.3,0-6.2,1.7-6.2,6.3v13.2h-6.2v-25H187.1z"/>
			<path class="st1" d="M223.3,158.1h5.9v25h-5.8l-0.3-3.7c-1.4,2.9-5.3,4.4-8.1,4.4c-7.4,0.1-12.9-4.5-12.9-13.3
				c0-8.6,5.7-13.2,13.1-13.1c3.4,0,6.6,1.6,8,4.1L223.3,158.1z M208.3,170.6c0,4.8,3.3,7.6,7.4,7.6c9.8,0,9.8-15.2,0-15.2
				C211.6,163,208.3,165.8,208.3,170.6z"/>
			<path class="st1" d="M251.1,183.1v-13.4c0-3.3-1.7-6.3-5.1-6.3c-3.4,0-5.3,3-5.3,6.3v13.4h-6.2V158h5.7l0.5,3
				c1.3-2.5,4.2-3.5,6.6-3.5c3,0,6,1.2,7.4,4.7c2.2-3.6,5.1-4.6,8.4-4.6c7.1,0,10.6,4.4,10.6,11.9v13.5h-6.2v-13.5
				c0-3.3-1.4-6.1-4.7-6.1s-5.4,2.9-5.4,6.2v13.4H251.1z"/>
			<path class="st1" d="M304.9,170.6c0,7.2-4.9,13.1-13.1,13.1c-8.1,0-13-5.8-13-13.1c0-7.2,5-13.1,13-13.1
				C299.7,157.6,304.9,163.5,304.9,170.6z M285,170.6c0,3.8,2.3,7.4,6.8,7.4c4.5,0,6.8-3.6,6.8-7.4c0-3.8-2.6-7.4-6.8-7.4
				C287.3,163.2,285,166.9,285,170.6z"/>
			<path class="st1" d="M325.5,164.7c-1.8-1.7-3.8-2.2-6.2-2.2c-2.9,0-4.6,0.9-4.6,2.5c0,1.6,1.5,2.5,4.7,2.7
				c4.7,0.3,10.7,1.4,10.7,8c0,4.4-3.6,8.2-10.8,8.2c-4,0-7.9-0.7-11.6-4.5l3-4.4c1.8,2,5.8,3.5,8.6,3.5c2.3,0.1,4.5-1.2,4.5-3
				c0-1.7-1.4-2.4-5-2.6c-4.7-0.4-10.4-2.1-10.4-7.8c0-5.8,6-7.8,10.6-7.8c3.9,0,6.9,0.8,9.8,3.3L325.5,164.7z"/>
			<path class="st1" d="M339.3,172.8c0.4,3.1,3.1,5.3,7.5,5.3c2.3,0,5.3-0.9,6.7-2.3l4,3.9c-2.6,2.7-7,4.1-10.8,4.1
				c-8.6,0-13.8-5.3-13.8-13.4c0-7.6,5.2-13.1,13.3-13.1c8.4,0,13.6,5.2,12.6,15.5H339.3z M353,167.7c-0.4-3.3-2.9-4.9-6.5-4.9
				c-3.4,0-6.1,1.6-7,4.9H353z"/>
			<path class="st1" d="M383.5,158.1h5.9v25h-5.8l-0.3-3.7c-1.4,2.9-5.3,4.4-8.1,4.4c-7.4,0.1-12.9-4.5-12.9-13.3
				c0-8.6,5.7-13.2,13.1-13.1c3.4,0,6.6,1.6,8,4.1L383.5,158.1z M368.5,170.6c0,4.8,3.3,7.6,7.4,7.6c9.8,0,9.8-15.2,0-15.2
				C371.8,163,368.5,165.8,368.5,170.6z"/>
			<path class="st1" d="M402.4,151v7.1h6.9v5.3h-7v10.8c0,2.4,1.3,3.6,3.3,3.6c1,0,2.1-0.3,3-0.8l1.7,5.3c-1.8,0.7-3.3,1-5.1,1.1
				c-5.4,0.2-9-2.9-9-9.1v-10.8h-4.7v-5.3h4.7v-6.5L402.4,151z"/>
			<path class="st1" d="M430.3,164.7c-1.8-1.7-3.8-2.2-6.2-2.2c-2.9,0-4.6,0.9-4.6,2.5c0,1.6,1.5,2.5,4.7,2.7
				c4.7,0.3,10.7,1.4,10.7,8c0,4.4-3.6,8.2-10.8,8.2c-4,0-7.9-0.7-11.6-4.5l3-4.4c1.8,2,5.8,3.5,8.6,3.5c2.3,0.1,4.5-1.2,4.5-3
				c0-1.7-1.4-2.4-5-2.6c-4.7-0.4-10.4-2.1-10.4-7.8c0-5.8,6-7.8,10.6-7.8c3.9,0,6.9,0.8,9.8,3.3L430.3,164.7z"/>
		</g>
	</g>
	<g>
		<g>
			<path class="st1" d="M251,522.8c0.3,0,0.7,0.1,1.1,0.3l-0.5-0.9l1.1-0.7l3.8,6.6c0.5,0.9,0.8,1.7,0.9,2.4c0.1,1.3-0.6,2.3-2,3.1
				c-0.8,0.5-1.5,0.7-2.3,0.6c-0.7,0-1.4-0.4-1.8-1.1l1.2-0.7c0.2,0.3,0.5,0.5,0.8,0.6c0.4,0.1,0.9,0,1.5-0.3
				c0.9-0.5,1.4-1.2,1.3-2.1c-0.1-0.5-0.4-1.2-1-2.2c0,0.5-0.2,1-0.4,1.3c-0.2,0.4-0.6,0.7-1.2,1.1c-0.8,0.5-1.6,0.6-2.6,0.4
				c-0.9-0.2-1.7-1-2.5-2.3c-0.7-1.2-1-2.3-0.8-3.4c0.2-1,0.7-1.8,1.6-2.3C249.8,522.9,250.4,522.8,251,522.8z M251.9,524
				c-0.6-0.2-1.2-0.2-1.8,0.2c-0.9,0.5-1.2,1.2-1.1,2.2c0.1,0.5,0.3,1.1,0.7,1.8c0.5,0.8,1,1.3,1.6,1.6c0.6,0.2,1.2,0.2,1.7-0.1
				c0.9-0.5,1.3-1.3,1.2-2.3c-0.1-0.6-0.3-1.1-0.6-1.7C253.1,524.8,252.5,524.3,251.9,524z"/>
			<path class="st1" d="M253,517.7l1.2-0.7l0.8,1.4l-1.2,0.7L253,517.7z M254.5,520.4l1.2-0.7l4.2,7.2l-1.2,0.7L254.5,520.4z"/>
			<path class="st1" d="M256.7,516.4l1.2-0.7l1.2,2l1.2-0.7l0.6,1l-1.2,0.7l2.7,4.8c0.1,0.3,0.3,0.4,0.6,0.4c0.1,0,0.3-0.1,0.5-0.2
				c0.1,0,0.1-0.1,0.2-0.1c0.1,0,0.1-0.1,0.2-0.2l0.6,1c-0.1,0.1-0.2,0.2-0.4,0.3c-0.1,0.1-0.3,0.2-0.5,0.3c-0.6,0.3-1,0.4-1.4,0.2
				c-0.4-0.2-0.7-0.5-1-1l-2.8-4.8l-1,0.6l-0.6-1l1-0.6L256.7,516.4z"/>
			<path class="st1" d="M259.9,513.6l1.2-0.7l2.2,3.7c0.1-0.5,0.2-0.9,0.3-1.2c0.2-0.5,0.7-0.9,1.3-1.2c1.1-0.6,2-0.7,2.8-0.1
				c0.4,0.3,0.9,0.8,1.3,1.5l2.7,4.7l-1.3,0.7l-2.6-4.6c-0.3-0.5-0.6-0.9-0.9-1.1c-0.5-0.3-1-0.2-1.6,0.1c-0.5,0.3-0.9,0.7-1.1,1.3
				c-0.2,0.6,0,1.4,0.5,2.3l2.2,3.9l-1.2,0.7L259.9,513.6z"/>
			<path class="st1" d="M270.4,511.2l2.8,4.8c0.2,0.4,0.4,0.6,0.7,0.8c0.5,0.3,1,0.3,1.6-0.1c0.9-0.5,1.2-1.2,1.1-2.1
				c-0.1-0.5-0.3-1.1-0.7-1.8l-2.1-3.6l1.2-0.7l4.2,7.3l-1.2,0.7l-0.6-1.1c0,0.4-0.1,0.7-0.2,1c-0.2,0.6-0.7,1.2-1.4,1.6
				c-1,0.6-1.9,0.7-2.7,0.2c-0.4-0.3-0.8-0.7-1.2-1.3l-2.9-4.9L270.4,511.2z"/>
			<path class="st1" d="M275.3,504.8l1.2-0.7l2.1,3.6c0.1-0.5,0.2-1,0.5-1.4c0.3-0.4,0.6-0.7,1.1-1c0.9-0.5,1.8-0.6,2.7-0.3
				c0.9,0.3,1.7,1.1,2.4,2.3c0.7,1.2,0.9,2.3,0.8,3.4c-0.1,1.1-0.7,1.9-1.7,2.5c-0.6,0.3-1.1,0.5-1.6,0.4c-0.3,0-0.7-0.1-1.2-0.3
				l0.5,0.9l-1.1,0.7L275.3,504.8z M284.8,510.4c0-0.7-0.2-1.5-0.7-2.4c-0.4-0.8-1-1.3-1.6-1.6c-0.6-0.3-1.2-0.3-1.9,0.1
				c-0.6,0.3-0.9,0.8-1.1,1.5c-0.2,0.7,0,1.5,0.5,2.4c0.4,0.7,0.8,1.2,1.2,1.5c0.8,0.6,1.6,0.7,2.5,0.2
				C284.4,511.7,284.8,511.2,284.8,510.4z"/>
			<path class="st1" d="M288.3,508.6l1.4-0.8l0.9,1.5l-1.4,0.8L288.3,508.6z"/>
			<path class="st1" d="M293.6,498.4c0.7,0.1,1.4,0.6,2.1,1.5l-1.2,0.7c-0.3-0.4-0.7-0.7-1.1-0.8c-0.4-0.1-0.9-0.1-1.5,0.3
				c-0.8,0.5-1.1,1.2-1,2.1c0.1,0.6,0.3,1.3,0.7,2c0.4,0.7,0.9,1.3,1.5,1.6c0.6,0.3,1.2,0.3,1.9-0.1c0.5-0.3,0.8-0.7,0.9-1.2
				s0.1-1-0.1-1.6l1.2-0.7c0.4,1,0.5,1.9,0.2,2.7c-0.3,0.8-0.9,1.4-1.7,1.9c-1,0.5-1.9,0.6-2.9,0.3c-1-0.4-1.8-1.1-2.4-2.1
				c-0.7-1.3-1-2.5-0.8-3.5c0.2-1.1,0.8-1.9,1.8-2.4C292.1,498.4,292.8,498.3,293.6,498.4z"/>
			<path class="st1" d="M301.3,494.4c1,0.3,1.9,1,2.6,2.2c0.7,1.2,1,2.3,0.8,3.4c-0.1,1.1-0.8,2-2,2.7c-1,0.6-2,0.7-3,0.4
				c-1-0.3-1.8-1.1-2.5-2.2c-0.7-1.2-1-2.4-0.8-3.5s0.8-1.9,1.9-2.5C299.3,494.3,300.2,494.1,301.3,494.4z M303.3,499.7
				c-0.1-0.8-0.3-1.6-0.7-2.3c-0.4-0.7-0.8-1.2-1.3-1.5c-0.7-0.5-1.5-0.5-2.4,0c-0.7,0.4-1.1,1-1.1,1.8c0,0.8,0.2,1.6,0.7,2.4
				c0.4,0.8,1,1.3,1.6,1.6c0.6,0.3,1.3,0.3,2.1-0.2C303,501.1,303.3,500.4,303.3,499.7z"/>
			<path class="st1" d="M303.3,492.3l1.2-0.7l0.6,1c0.1-0.5,0.2-0.9,0.3-1.2c0.2-0.5,0.6-0.9,1.1-1.2c0.6-0.3,1.1-0.5,1.6-0.4
				c0.3,0,0.6,0.2,1,0.4c0-0.5,0.2-1,0.5-1.4c0.3-0.4,0.6-0.7,1.1-1c1-0.6,1.8-0.6,2.6-0.1c0.4,0.3,0.8,0.7,1.2,1.4l2.8,4.8
				l-1.3,0.7l-2.9-5.1c-0.3-0.5-0.6-0.7-0.9-0.8c-0.3,0-0.7,0-1,0.2c-0.5,0.3-0.8,0.7-1,1.2c-0.2,0.5,0,1.2,0.4,1.9l2.4,4.2
				l-1.2,0.7l-2.7-4.8c-0.3-0.5-0.6-0.8-0.8-1c-0.4-0.2-0.8-0.2-1.3,0.1c-0.5,0.3-0.8,0.7-1,1.3s0,1.3,0.6,2.3l2.2,3.9l-1.2,0.7
				L303.3,492.3z"/>
			<path class="st1" d="M315.6,481.5l1-0.6l2.6,11.8l-1,0.6L315.6,481.5z"/>
			<path class="st1" d="M318.8,483.3l1.2-0.7l0.7,1.3c0-0.3,0-0.7,0.2-1.3c0.2-0.6,0.5-1,1-1.3c0,0,0.1,0,0.1-0.1
				c0.1,0,0.2-0.1,0.3-0.1l0.7,1.3c-0.1,0-0.2,0.1-0.2,0.1c-0.1,0-0.1,0.1-0.2,0.1c-0.6,0.4-1,0.8-1.1,1.4c-0.1,0.6,0,1.1,0.3,1.7
				l2.4,4.2l-1.2,0.7L318.8,483.3z"/>
			<path class="st1" d="M323.8,478.7l-1.2,0.7l-0.8-1.4l1.2-0.7L323.8,478.7z M327.5,490.4c0.5-0.3,0.8-0.6,0.9-0.7
				c0.1-0.1,0-0.4-0.3-0.8l-4.7-8.2l1.2-0.7l4.8,8.3c0.3,0.5,0.4,1,0.4,1.3c0,0.6-0.4,1.1-1.2,1.6c-0.1,0-0.1,0.1-0.2,0.1
				c-0.1,0-0.2,0.1-0.3,0.2L327.5,490.4z"/>
			<path class="st1" d="M330.6,476.8c0.3,0,0.7,0.1,1.2,0.3l-2.1-3.7l1.2-0.7l5.8,10l-1.1,0.6l-0.6-1c0,0.6-0.2,1.1-0.5,1.6
				c-0.3,0.4-0.7,0.8-1.2,1.1c-0.8,0.5-1.7,0.5-2.7,0.2c-1-0.3-1.8-1.1-2.5-2.2c-0.6-1.1-0.9-2.1-0.8-3.2c0.1-1.1,0.6-1.9,1.6-2.5
				C329.5,476.9,330.1,476.8,330.6,476.8z M331,483.8c0.6,0.3,1.3,0.3,2-0.1c0.6-0.3,0.9-0.8,1-1.5c0.1-0.7-0.1-1.5-0.7-2.4
				c-0.5-0.9-1.1-1.5-1.7-1.7c-0.6-0.2-1.2-0.2-1.8,0.1c-0.6,0.4-1,0.9-1.1,1.6c-0.1,0.7,0.1,1.5,0.6,2.4
				C329.8,482.9,330.4,483.5,331,483.8z"/>
			<path class="st1" d="M334.8,474.1l5.4,4.8l-1.4-7.1l1.3-0.8l1.5,8.9l-1.3,0.8l-6.9-5.7L334.8,474.1z"/>
			<path class="st1" d="M345.8,468c0.6,0,1.2,0.1,1.7,0.3c0.5,0.2,0.9,0.6,1.2,1c0.3,0.3,0.6,0.8,1,1.5l-5.3,3.1
				c0.4,0.7,1,1.2,1.5,1.5c0.6,0.3,1.2,0.2,1.9-0.2c0.6-0.4,1-0.9,1.2-1.5c0.1-0.4,0.1-0.7,0-1.1l1.2-0.7c0.1,0.3,0.2,0.6,0.2,1.1
				c0,0.4,0,0.8-0.1,1.2c-0.2,0.6-0.5,1.1-1,1.5c-0.3,0.2-0.6,0.5-0.9,0.7c-0.9,0.5-1.9,0.6-2.9,0.3c-1-0.3-1.9-1-2.5-2.2
				c-0.7-1.2-0.9-2.3-0.7-3.4c0.2-1.1,0.8-1.9,1.9-2.5C344.6,468.2,345.2,468,345.8,468z M347.9,470.6c-0.4-0.5-0.7-0.9-1.1-1.1
				c-0.7-0.4-1.4-0.4-2.2,0.1c-0.6,0.3-0.9,0.8-1.1,1.4c-0.1,0.6-0.1,1.3,0.3,1.9L347.9,470.6z"/>
			<path class="st1" d="M348.9,465.9l1.2-0.7l0.7,1.3c0-0.3,0-0.7,0.2-1.3c0.2-0.6,0.5-1,1-1.3c0,0,0.1,0,0.1-0.1
				c0.1,0,0.2-0.1,0.3-0.1l0.7,1.3c-0.1,0-0.2,0.1-0.2,0.1c-0.1,0-0.1,0.1-0.2,0.1c-0.6,0.4-1,0.8-1.1,1.4s0,1.1,0.3,1.7l2.4,4.2
				l-1.2,0.7L348.9,465.9z"/>
			<path class="st1" d="M357.1,467.8c0.3,0.4,0.6,0.6,0.8,0.8c0.5,0.2,1.2,0.1,1.9-0.3c0.5-0.3,0.8-0.6,1-1c0.2-0.4,0.2-0.8,0-1.2
				c-0.2-0.3-0.5-0.5-0.8-0.5c-0.2,0-0.7,0.1-1.2,0.3l-1.1,0.3c-0.7,0.2-1.3,0.3-1.7,0.3c-0.7,0-1.2-0.3-1.6-0.9
				c-0.4-0.7-0.5-1.4-0.2-2.1c0.3-0.7,0.8-1.3,1.6-1.8c1.1-0.6,2.1-0.8,2.9-0.4c0.5,0.2,0.9,0.6,1.2,1.1l-1.2,0.7
				c-0.2-0.3-0.4-0.5-0.7-0.6c-0.5-0.2-1,0-1.7,0.4c-0.5,0.3-0.8,0.6-0.9,0.9c-0.1,0.3-0.1,0.6,0,0.9c0.2,0.3,0.5,0.5,0.9,0.5
				c0.2,0,0.6,0,1-0.2l0.9-0.3c1-0.3,1.7-0.4,2.1-0.4c0.7,0,1.2,0.4,1.6,1.1c0.4,0.6,0.5,1.3,0.2,2.1c-0.2,0.8-0.8,1.4-1.8,2
				c-1.1,0.6-2,0.8-2.7,0.6c-0.7-0.2-1.3-0.7-1.8-1.4L357.1,467.8z"/>
			<path class="st1" d="M365.1,456.8c0.6,0,1.2,0.1,1.7,0.3c0.5,0.2,0.9,0.6,1.2,1c0.3,0.3,0.6,0.8,1,1.5l-5.3,3.1
				c0.4,0.7,1,1.2,1.5,1.5c0.6,0.3,1.2,0.2,1.9-0.2c0.6-0.4,1-0.9,1.2-1.5c0.1-0.4,0.1-0.7,0-1.1l1.2-0.7c0.1,0.3,0.2,0.6,0.2,1.1
				c0,0.4,0,0.8-0.1,1.2c-0.2,0.6-0.5,1.1-1,1.5c-0.3,0.2-0.6,0.5-0.9,0.7c-0.9,0.5-1.9,0.6-2.9,0.3c-1-0.3-1.9-1-2.5-2.2
				c-0.7-1.2-0.9-2.3-0.7-3.4c0.2-1.1,0.8-1.9,1.9-2.5C363.9,457,364.5,456.8,365.1,456.8z M367.2,459.4c-0.4-0.5-0.7-0.9-1.1-1.1
				c-0.7-0.4-1.4-0.4-2.2,0.1c-0.6,0.3-0.9,0.8-1.1,1.4c-0.1,0.6-0.1,1.3,0.3,1.9L367.2,459.4z"/>
			<path class="st1" d="M368.9,450.7l1-0.6l2.6,11.8l-1,0.6L368.9,450.7z"/>
			<path class="st1" d="M372.1,452.5l1.2-0.7l0.7,1.3c0-0.3,0-0.7,0.2-1.3c0.2-0.6,0.5-1,1-1.3c0,0,0.1,0,0.1-0.1
				c0.1,0,0.2-0.1,0.3-0.1l0.7,1.3c-0.1,0-0.2,0.1-0.2,0.1c-0.1,0-0.1,0.1-0.2,0.1c-0.6,0.4-1,0.8-1.1,1.4s0,1.1,0.3,1.7l2.4,4.2
				l-1.2,0.7L372.1,452.5z"/>
			<path class="st1" d="M377.2,447.8l-1.2,0.7l-0.8-1.4l1.2-0.7L377.2,447.8z M380.8,459.6c0.5-0.3,0.8-0.6,0.9-0.7s0-0.4-0.3-0.8
				l-4.7-8.2l1.2-0.7l4.8,8.3c0.3,0.5,0.4,1,0.4,1.3c0,0.6-0.4,1.1-1.2,1.6c-0.1,0-0.1,0.1-0.2,0.1c-0.1,0-0.2,0.1-0.3,0.2
				L380.8,459.6z"/>
			<path class="st1" d="M384,446c0.3,0,0.7,0.1,1.2,0.3l-2.1-3.7l1.2-0.7l5.8,10l-1.1,0.6l-0.6-1c0,0.6-0.2,1.1-0.5,1.6
				c-0.3,0.4-0.7,0.8-1.2,1.1c-0.8,0.5-1.7,0.5-2.7,0.2c-1-0.3-1.8-1.1-2.5-2.2c-0.6-1.1-0.9-2.1-0.8-3.2c0.1-1.1,0.6-1.9,1.6-2.5
				C382.9,446.1,383.5,445.9,384,446z M384.4,453c0.6,0.3,1.3,0.3,2-0.1c0.6-0.3,0.9-0.8,1-1.5c0.1-0.7-0.1-1.5-0.7-2.4
				c-0.5-0.9-1.1-1.5-1.7-1.7c-0.6-0.2-1.2-0.2-1.8,0.1c-0.6,0.4-1,0.9-1.1,1.6c-0.1,0.7,0.1,1.5,0.6,2.4
				C383.2,452.1,383.7,452.7,384.4,453z"/>
			<path class="st1" d="M391.6,450.1c-0.9-0.3-1.6-1-2.1-1.9l1.3-0.7c0.4,0.6,0.8,1,1.1,1.2c0.6,0.3,1.3,0.3,2.2-0.2
				c0.6-0.4,1.1-0.8,1.3-1.4c0.2-0.6,0.1-1.1-0.2-1.7c-0.4-0.7-0.9-1-1.4-1.1s-1.2,0.2-1.9,0.6c-0.1,0-0.2,0.1-0.2,0.1
				c-0.1,0.1-0.2,0.1-0.2,0.2l-0.6-1.1c0.1-0.1,0.2-0.1,0.3-0.2s0.2-0.1,0.3-0.2c0.5-0.3,0.8-0.6,1-0.9c0.4-0.6,0.4-1.2,0-1.8
				c-0.3-0.5-0.7-0.8-1.2-0.8c-0.5-0.1-1,0-1.4,0.3c-0.8,0.5-1.2,1.1-1.2,1.8c0,0.4,0.1,0.9,0.4,1.4l-1.2,0.7
				c-0.4-0.7-0.6-1.4-0.6-2.1c0-1.2,0.6-2.2,1.8-2.9c1-0.6,1.9-0.8,2.7-0.7c0.8,0.1,1.4,0.6,1.9,1.5c0.3,0.6,0.5,1.2,0.4,1.7
				c-0.1,0.3-0.2,0.7-0.5,1c0.6-0.2,1.1-0.1,1.7,0.1c0.5,0.2,0.9,0.6,1.3,1.2c0.5,0.9,0.7,1.9,0.4,2.8c-0.3,0.9-1,1.7-2.1,2.4
				C393.5,450.2,392.5,450.4,391.6,450.1z"/>
			<path class="st1" d="M394.4,436.9l1.2-0.7l1.2,2l1.2-0.7l0.6,1l-1.2,0.7l2.7,4.8c0.1,0.3,0.3,0.4,0.6,0.4c0.1,0,0.3-0.1,0.5-0.2
				c0.1,0,0.1-0.1,0.2-0.1c0.1,0,0.1-0.1,0.2-0.2l0.6,1c-0.1,0.1-0.2,0.2-0.4,0.3c-0.1,0.1-0.3,0.2-0.5,0.3c-0.6,0.3-1,0.4-1.4,0.2
				c-0.4-0.2-0.7-0.5-1-1l-2.8-4.8l-1,0.6l-0.6-1l1-0.6L394.4,436.9z"/>
			<path class="st1" d="M399.2,436.9l1.2-0.7l0.7,1.3c0-0.3,0-0.7,0.2-1.3c0.2-0.6,0.5-1,1-1.3c0,0,0.1,0,0.1-0.1s0.2-0.1,0.3-0.1
				l0.7,1.3c-0.1,0-0.2,0.1-0.2,0.1s-0.1,0.1-0.2,0.1c-0.6,0.4-1,0.8-1.1,1.4c-0.1,0.6,0,1.1,0.3,1.7l2.4,4.2l-1.2,0.7L399.2,436.9z
				"/>
			<path class="st1" d="M409.4,434.8c0.3-0.2,0.4-0.4,0.4-0.7c0-0.1-0.1-0.3-0.2-0.5c-0.2-0.4-0.6-0.6-1-0.7c-0.4,0-0.9,0.1-1.4,0.5
				c-0.6,0.4-1,0.8-1.1,1.3c0,0.3,0,0.6,0.2,1l-1.1,0.7c-0.5-0.9-0.6-1.7-0.2-2.4c0.4-0.7,0.9-1.2,1.6-1.7c0.9-0.5,1.6-0.7,2.4-0.7
				c0.7,0,1.3,0.4,1.7,1.1l2.4,4.2c0.1,0.1,0.2,0.2,0.3,0.3s0.2,0,0.4-0.1c0.1,0,0.1-0.1,0.2-0.1c0.1,0,0.1-0.1,0.2-0.2l0.5,0.9
				c-0.2,0.2-0.3,0.3-0.4,0.4s-0.2,0.2-0.4,0.3c-0.4,0.2-0.8,0.3-1.2,0.1c-0.2-0.1-0.4-0.3-0.6-0.6c-0.1,0.5-0.3,1-0.6,1.5
				c-0.3,0.5-0.8,0.9-1.3,1.3c-0.7,0.4-1.3,0.5-2,0.3s-1.2-0.6-1.5-1.2c-0.4-0.7-0.5-1.3-0.3-1.9c0.2-0.6,0.6-1.2,1.3-1.6
				L409.4,434.8z M408.7,439.6c0.4,0.1,0.7,0,1.1-0.2c0.4-0.2,0.8-0.6,1.1-1c0.5-0.7,0.5-1.5,0.1-2.2l-0.6-1
				c-0.1,0.2-0.2,0.4-0.4,0.6c-0.2,0.2-0.4,0.4-0.6,0.5l-0.7,0.5c-0.4,0.3-0.7,0.6-0.8,0.9c-0.3,0.4-0.2,0.9,0,1.3
				C408,439.4,408.3,439.6,408.7,439.6z"/>
			<path class="st1" d="M411.5,429.7l1.2-0.7l0.6,1c0.1-0.5,0.2-0.9,0.3-1.2c0.2-0.5,0.6-0.9,1.1-1.2c0.6-0.3,1.1-0.5,1.6-0.4
				c0.3,0,0.6,0.2,1,0.4c0-0.5,0.2-1,0.5-1.4c0.3-0.4,0.6-0.7,1.1-1c1-0.6,1.8-0.6,2.6-0.1c0.4,0.3,0.8,0.7,1.2,1.4l2.8,4.8
				l-1.3,0.7l-2.9-5.1c-0.3-0.5-0.6-0.7-0.9-0.8c-0.3,0-0.7,0-1,0.2c-0.5,0.3-0.8,0.7-1,1.2c-0.2,0.5,0,1.2,0.4,1.9l2.4,4.2
				l-1.2,0.7l-2.7-4.8c-0.3-0.5-0.6-0.8-0.8-1c-0.4-0.2-0.8-0.2-1.3,0.1c-0.5,0.3-0.8,0.7-1,1.3s0,1.3,0.6,2.3l2.2,3.9l-1.2,0.7
				L411.5,429.7z"/>
			<path class="st1" d="M428.9,420.7c1,0.3,1.9,1,2.6,2.2c0.7,1.2,1,2.3,0.8,3.4c-0.1,1.1-0.8,2-2,2.7c-1,0.6-2,0.7-3,0.4
				c-1-0.3-1.8-1.1-2.5-2.2c-0.7-1.2-1-2.4-0.8-3.5c0.2-1.1,0.8-1.9,1.9-2.5C426.9,420.6,427.9,420.5,428.9,420.7z M430.9,426
				c-0.1-0.8-0.3-1.6-0.7-2.3c-0.4-0.7-0.8-1.2-1.3-1.5c-0.7-0.5-1.5-0.5-2.4,0c-0.7,0.4-1.1,1-1.1,1.8c0,0.8,0.2,1.6,0.7,2.4
				c0.4,0.8,1,1.3,1.6,1.6c0.6,0.3,1.3,0.3,2.1-0.2C430.6,427.4,431,426.8,430.9,426z"/>
			<path class="st1" d="M434.5,423.2c0.3,0.4,0.6,0.6,0.8,0.8c0.5,0.2,1.2,0.1,1.9-0.3c0.5-0.3,0.8-0.6,1-1s0.2-0.8,0-1.2
				c-0.2-0.3-0.5-0.5-0.8-0.5c-0.2,0-0.6,0.1-1.2,0.3l-1.1,0.3c-0.7,0.2-1.3,0.3-1.7,0.3c-0.7,0-1.2-0.3-1.6-0.9
				c-0.4-0.7-0.5-1.4-0.2-2.1c0.3-0.7,0.8-1.3,1.6-1.8c1.1-0.6,2.1-0.8,2.9-0.4c0.5,0.2,0.9,0.6,1.2,1.1l-1.2,0.7
				c-0.2-0.3-0.4-0.5-0.7-0.6c-0.5-0.2-1,0-1.7,0.4c-0.5,0.3-0.8,0.6-0.9,0.9c-0.1,0.3-0.1,0.6,0,0.9c0.2,0.3,0.5,0.5,0.9,0.5
				c0.2,0,0.6,0,1-0.2l0.9-0.3c1-0.3,1.7-0.4,2.1-0.4c0.7,0,1.2,0.4,1.6,1.1c0.4,0.6,0.5,1.4,0.2,2.1c-0.2,0.8-0.8,1.4-1.8,2
				c-1.1,0.6-2,0.8-2.7,0.6c-0.7-0.2-1.3-0.7-1.8-1.4L434.5,423.2z"/>
			<path class="st1" d="M442.5,412.1c0.6,0,1.2,0.1,1.7,0.3c0.5,0.2,0.9,0.6,1.2,1c0.3,0.3,0.6,0.8,1,1.5l-5.3,3.1
				c0.4,0.7,1,1.2,1.5,1.5c0.6,0.3,1.2,0.2,1.9-0.2c0.6-0.4,1-0.9,1.2-1.5c0.1-0.4,0.1-0.7,0-1.1l1.2-0.7c0.1,0.3,0.2,0.6,0.2,1.1
				c0,0.4,0,0.8-0.1,1.2c-0.2,0.6-0.5,1.1-1,1.5c-0.3,0.2-0.6,0.5-0.9,0.7c-0.9,0.5-1.9,0.6-2.9,0.3c-1-0.3-1.9-1-2.5-2.2
				c-0.7-1.2-0.9-2.3-0.7-3.4c0.2-1.1,0.8-1.9,1.9-2.5C441.3,412.3,441.9,412.2,442.5,412.1z M444.6,414.7c-0.4-0.5-0.7-0.9-1.1-1.1
				c-0.7-0.4-1.4-0.4-2.2,0.1c-0.6,0.3-0.9,0.8-1.1,1.4c-0.1,0.6-0.1,1.3,0.3,1.9L444.6,414.7z"/>
			<path class="st1" d="M451.1,410.7c0.3-0.2,0.4-0.4,0.4-0.7c0-0.1-0.1-0.3-0.2-0.5c-0.2-0.4-0.6-0.6-1-0.7c-0.4,0-0.9,0.1-1.4,0.5
				c-0.6,0.4-1,0.8-1.1,1.3c0,0.3,0,0.6,0.2,1l-1.1,0.7c-0.5-0.9-0.6-1.7-0.2-2.4c0.4-0.7,0.9-1.2,1.6-1.7c0.9-0.5,1.6-0.7,2.4-0.7
				c0.7,0,1.3,0.4,1.7,1.1l2.4,4.2c0.1,0.1,0.2,0.2,0.3,0.3s0.2,0,0.4-0.1c0.1,0,0.1-0.1,0.2-0.1c0.1,0,0.1-0.1,0.2-0.2l0.5,0.9
				c-0.2,0.2-0.3,0.3-0.4,0.4s-0.2,0.2-0.4,0.3c-0.4,0.2-0.8,0.3-1.2,0.1c-0.2-0.1-0.4-0.3-0.6-0.6c-0.1,0.5-0.3,1-0.6,1.5
				c-0.3,0.5-0.8,0.9-1.3,1.3c-0.7,0.4-1.3,0.5-2,0.3s-1.2-0.6-1.5-1.2c-0.4-0.7-0.5-1.3-0.3-1.9c0.2-0.6,0.6-1.2,1.3-1.6
				L451.1,410.7z M450.5,415.5c0.4,0.1,0.7,0,1.1-0.2c0.4-0.2,0.8-0.6,1.1-1c0.5-0.7,0.5-1.5,0.1-2.2l-0.6-1
				c-0.1,0.2-0.2,0.4-0.4,0.6c-0.2,0.2-0.4,0.4-0.6,0.5l-0.7,0.5c-0.4,0.3-0.7,0.6-0.8,0.9c-0.3,0.4-0.2,0.9,0,1.3
				C449.8,415.2,450.1,415.4,450.5,415.5z"/>
			<path class="st1" d="M452.4,403.4l1.2-0.7l1.2,2l1.2-0.7l0.6,1l-1.2,0.7l2.7,4.8c0.1,0.3,0.3,0.4,0.6,0.4c0.1,0,0.3-0.1,0.5-0.2
				c0.1,0,0.1-0.1,0.2-0.1c0.1,0,0.1-0.1,0.2-0.2l0.6,1c-0.1,0.1-0.2,0.2-0.4,0.3c-0.1,0.1-0.3,0.2-0.5,0.3c-0.6,0.3-1,0.4-1.4,0.2
				c-0.4-0.2-0.7-0.5-1-1l-2.8-4.8l-1,0.6l-0.6-1l1-0.6L452.4,403.4z"/>
			<path class="st1" d="M460.8,408c0.3,0.4,0.6,0.6,0.8,0.8c0.5,0.2,1.2,0.1,1.9-0.3c0.5-0.3,0.8-0.6,1-1c0.2-0.4,0.2-0.8,0-1.2
				c-0.2-0.3-0.5-0.5-0.8-0.5c-0.2,0-0.7,0.1-1.2,0.3l-1.1,0.3c-0.7,0.2-1.3,0.3-1.7,0.3c-0.7,0-1.2-0.3-1.6-0.9
				c-0.4-0.7-0.5-1.4-0.2-2.1c0.3-0.7,0.8-1.3,1.6-1.8c1.1-0.6,2.1-0.8,2.9-0.4c0.5,0.2,0.9,0.6,1.2,1.1l-1.2,0.7
				c-0.2-0.3-0.4-0.5-0.7-0.6c-0.5-0.2-1,0-1.7,0.4c-0.5,0.3-0.8,0.6-0.9,0.9c-0.1,0.3-0.1,0.6,0,0.9c0.2,0.3,0.5,0.5,0.9,0.5
				c0.2,0,0.6,0,1-0.2l0.9-0.3c1-0.3,1.7-0.4,2.1-0.4c0.7,0,1.2,0.4,1.6,1.1c0.4,0.6,0.5,1.3,0.2,2.1c-0.2,0.8-0.8,1.4-1.8,2
				c-1.1,0.6-2,0.8-2.7,0.6c-0.7-0.2-1.3-0.7-1.8-1.4L460.8,408z"/>
		</g>
	</g>
</g>
</svg>
